<?xml version="1.0" encoding="utf-8"?>
<!-- Generator: Adobe Illustrator 16.0.0, SVG Export Plug-In . SVG Version: 6.00 Build 0)  -->
<!DOCTYPE svg PUBLIC "-//W3C//DTD SVG 1.1//EN" "http://www.w3.org/Graphics/SVG/1.1/DTD/svg11.dtd">
<svg version="1.1" id="Layer_1" xmlns="http://www.w3.org/2000/svg" xmlns:xlink="http://www.w3.org/1999/xlink" x="0px" y="0px"
	 width="1400px" height="980px" viewBox="0 0 1400 980" enable-background="new 0 0 1400 980" xml:space="preserve">
<g>
	<g>
		<g>
			<rect fill="#FFFFFF" width="1399.994" height="980"/>
		</g>
	</g>
	<g>
		<g>
			<rect x="1071.118" y="225.224" fill="#F9B470" width="159.162" height="210.636"/>
		</g>
		<g>
			<path fill="#A6FF91" d="M1150.701,442.969c-1.697,0-3.078,1.383-3.078,3.083c0,1.695,1.381,3.073,3.078,3.073
				c1.698,0,3.078-1.378,3.078-3.073C1153.779,444.353,1152.399,442.969,1150.701,442.969z"/>
		</g>
		<g>
			<path fill="#58595B" d="M1246.059,218.608c0.092-3.023-0.643-5.354-2.182-6.939c-2.233-2.304-5.653-2.647-7.491-2.647
				c-0.889,0-1.445,0.078-1.451,0.078l-168.314,0.013l-0.088-0.008c-0.216-0.023-0.718-0.075-1.453-0.075
				c-1.869,0-5.335,0.343-7.562,2.639c-1.541,1.589-2.275,3.911-2.182,6.903l-0.189,226.893c-0.031,0.448-0.224,4.163,1.981,6.571
				c1.417,1.547,3.585,2.278,6.433,2.171l87.141,0.005l87.094-0.005l0.092,0.003c0.177,0.005,0.33,0.007,0.48,0.007
				c2.598,0,4.586-0.736,5.91-2.189c2.32-2.538,1.979-6.406,1.977-6.445L1246.059,218.608z M1150.701,451.539
				c-3.029,0-5.491-2.462-5.491-5.486c0-3.029,2.462-5.494,5.491-5.494c3.027,0,5.488,2.465,5.488,5.494
				C1156.189,449.077,1153.729,451.539,1150.701,451.539z M1232.943,438.523h-164.487V222.561h164.487V438.523z"/>
		</g>
		<g>
			<path d="M1248.658,445.465l-0.191-226.817c0.116-3.667-0.845-6.581-2.857-8.659c-2.846-2.938-7.042-3.377-9.288-3.377
				c-0.211,0-1.157,0.019-1.573,0.089l-167.947,0.013c-0.029-0.003-0.692-0.094-1.722-0.094c-2.249,0-6.448,0.437-9.293,3.369
				c-2.01,2.075-2.972,4.977-2.86,8.62l-0.184,226.748c-0.021,0.203-0.422,4.987,2.594,8.294c1.805,1.977,4.395,2.978,7.702,2.978
				c0.2,0,0.408-0.003,0.569-0.01l87.094,0.007l87.053-0.007c0.205,0.007,0.411,0.01,0.613,0.01c3.306,0,5.893-1.001,7.697-2.978
				C1249.133,450.286,1248.661,445.47,1248.658,445.465z M1244.277,452.027c-1.324,1.454-3.313,2.189-5.91,2.189
				c-0.15,0-0.304-0.002-0.48-0.007l-0.092-0.003l-87.094,0.005l-87.141-0.005c-2.848,0.107-5.016-0.624-6.433-2.171
				c-2.205-2.408-2.013-6.123-1.981-6.571l0.189-226.893c-0.094-2.993,0.641-5.314,2.182-6.903c2.227-2.296,5.692-2.639,7.562-2.639
				c0.735,0,1.237,0.052,1.453,0.075l0.088,0.008l168.314-0.013c0.006,0,0.563-0.078,1.451-0.078c1.838,0,5.258,0.343,7.491,2.647
				c1.539,1.586,2.273,3.916,2.182,6.939l0.195,226.974C1246.256,445.621,1246.598,449.49,1244.277,452.027z"/>
		</g>
		<g>
			<path d="M1068.456,438.523h164.487V222.561h-164.487V438.523z M1071.118,225.224h159.162V435.86h-159.162V225.224z"/>
		</g>
		<g>
			<path d="M1150.701,440.559c-3.029,0-5.491,2.465-5.491,5.494c0,3.024,2.462,5.486,5.491,5.486c3.027,0,5.488-2.462,5.488-5.486
				C1156.189,443.023,1153.729,440.559,1150.701,440.559z M1150.701,449.126c-1.697,0-3.078-1.378-3.078-3.073
				c0-1.7,1.381-3.083,3.078-3.083c1.698,0,3.078,1.383,3.078,3.083C1153.779,447.748,1152.399,449.126,1150.701,449.126z"/>
		</g>
	</g>
	<g>
		<g>
			<rect x="126.021" y="579.185" fill="#A574B3" width="159.162" height="210.637"/>
		</g>
		<g>
			<path fill="#FFFA8C" d="M205.603,796.93c-1.698,0-3.079,1.384-3.079,3.084c0,1.695,1.381,3.073,3.079,3.073
				s3.079-1.378,3.079-3.073C208.682,798.313,207.301,796.93,205.603,796.93z"/>
		</g>
		<g>
			<path fill="#FFFFFF" d="M300.96,572.57c0.091-3.024-0.642-5.354-2.181-6.94c-2.234-2.304-5.653-2.647-7.492-2.647
				c-0.889,0-1.445,0.079-1.451,0.079l-168.314,0.013l-0.088-0.008c-0.216-0.023-0.717-0.075-1.454-0.075
				c-1.87,0-5.335,0.343-7.562,2.639c-1.542,1.589-2.274,3.911-2.182,6.903l-0.189,226.894c-0.031,0.446-0.224,4.163,1.981,6.569
				c1.417,1.551,3.581,2.305,6.433,2.172l87.141,0.005l87.094-0.005l0.091,0.002c0.177,0.006,0.33,0.008,0.481,0.008
				c2.597,0,4.586-0.735,5.91-2.189c2.319-2.537,1.979-6.405,1.976-6.445L300.96,572.57z M205.603,805.5
				c-3.03,0-5.492-2.462-5.492-5.486c0-3.029,2.462-5.493,5.492-5.493c3.026,0,5.489,2.464,5.489,5.493
				C211.092,803.038,208.629,805.5,205.603,805.5z M287.845,792.484H123.358V576.521h164.487V792.484z"/>
		</g>
		<g>
			<path d="M303.56,799.427l-0.192-226.817c0.117-3.667-0.845-6.581-2.857-8.659c-2.844-2.938-7.042-3.378-9.288-3.378
				c-0.21,0-1.157,0.019-1.573,0.089l-167.948,0.013c-0.028-0.002-0.691-0.094-1.721-0.094c-2.25,0-6.448,0.438-9.292,3.37
				c-2.01,2.075-2.973,4.977-2.86,8.62l-0.185,226.746c-0.021,0.204-0.421,4.987,2.595,8.295c1.805,1.976,4.395,2.978,7.702,2.978
				c0.2,0,0.408-0.003,0.569-0.011l87.094,0.008l87.052-0.008c0.206,0.008,0.411,0.011,0.614,0.011c3.304,0,5.892-1.002,7.696-2.978
				C304.034,804.246,303.563,799.432,303.56,799.427z M299.179,805.988c-1.324,1.454-3.313,2.189-5.91,2.189
				c-0.151,0-0.304-0.002-0.481-0.008l-0.091-0.002l-87.094,0.005l-87.141-0.005c-2.852,0.133-5.016-0.621-6.433-2.172
				c-2.205-2.406-2.013-6.123-1.981-6.569l0.189-226.894c-0.093-2.992,0.64-5.314,2.182-6.903c2.226-2.296,5.692-2.639,7.562-2.639
				c0.736,0,1.238,0.052,1.454,0.075l0.088,0.008l168.314-0.013c0.005,0,0.562-0.079,1.451-0.079c1.839,0,5.258,0.344,7.492,2.647
				c1.539,1.586,2.272,3.916,2.181,6.94l0.195,226.973C301.158,799.583,301.498,803.451,299.179,805.988z"/>
		</g>
		<g>
			<path d="M205.603,794.521c-3.03,0-5.492,2.464-5.492,5.493c0,3.024,2.462,5.486,5.492,5.486c3.026,0,5.489-2.462,5.489-5.486
				C211.092,796.984,208.629,794.521,205.603,794.521z M205.603,803.087c-1.698,0-3.079-1.378-3.079-3.073
				c0-1.7,1.381-3.084,3.079-3.084s3.079,1.384,3.079,3.084C208.682,801.709,207.301,803.087,205.603,803.087z"/>
		</g>
		<g>
			<path d="M123.358,792.484h164.487V576.521H123.358V792.484z M126.021,579.185h159.162v210.637H126.021V579.185z"/>
		</g>
	</g>
	<g>
		<g>
			<rect x="207.93" y="264.969" fill="#FFFA8C" width="91.925" height="157.355"/>
		</g>
		<g>
			<path fill="#62CFF4" d="M253.89,431.294c-3.008,0-5.455,2.447-5.455,5.456c0,3.008,2.447,5.458,5.455,5.458
				c3.009,0,5.458-2.45,5.458-5.458C259.348,433.741,256.898,431.294,253.89,431.294z"/>
		</g>
		<g>
			<path fill="#FFFFFF" d="M292.125,239.711l-76.551,0.005c-0.512,0.045-13.219,1.243-13.219,11.846v185.304
				c0,0.055-0.073,4.368,2.966,7.473c2.101,2.153,5.219,3.242,9.267,3.242h78.6c4.056,0,7.179-1.094,9.285-3.252
				c3.027-3.107,2.959-7.381,2.957-7.423V251.563C305.43,241.042,292.59,239.753,292.125,239.711z M236.578,251.54h34.631v4.167
				h-34.631V251.54z M253.89,444.472c-4.256,0-7.719-3.464-7.719-7.723c0-4.257,3.463-7.72,7.719-7.72
				c4.259,0,7.723,3.463,7.723,7.72C261.612,441.008,258.149,444.472,253.89,444.472z M302.518,424.986h-97.25v-162.68h97.25
				V424.986z"/>
		</g>
		<g>
			<path fill="#231F20" d="M292.203,237.449l-76.715,0.005c-0.153,0.01-15.397,1.42-15.397,14.108V436.84
				c-0.005,0.213-0.091,5.284,3.596,9.067c2.548,2.613,6.214,3.939,10.902,3.939h78.6c4.688,0,8.356-1.327,10.907-3.939
				c3.7-3.793,3.606-8.838,3.602-9.041V251.563C307.697,238.744,292.382,237.462,292.203,237.449z M305.43,436.906
				c0.002,0.042,0.07,4.316-2.957,7.423c-2.106,2.158-5.229,3.252-9.285,3.252h-78.6c-4.048,0-7.166-1.089-9.267-3.242
				c-3.039-3.104-2.966-7.418-2.966-7.473V251.563c0-10.603,12.707-11.801,13.219-11.846l76.551-0.005
				c0.465,0.042,13.305,1.331,13.305,11.851V436.906z"/>
		</g>
		<g>
			<path fill="#231F20" d="M253.89,429.029c-4.256,0-7.719,3.463-7.719,7.72c0,4.259,3.463,7.723,7.719,7.723
				c4.259,0,7.723-3.464,7.723-7.723C261.612,432.493,258.149,429.029,253.89,429.029z M253.89,442.207
				c-3.008,0-5.455-2.45-5.455-5.458c0-3.009,2.447-5.456,5.455-5.456c3.009,0,5.458,2.447,5.458,5.456
				C259.348,439.757,256.898,442.207,253.89,442.207z"/>
		</g>
		<g>
			<rect x="236.578" y="251.54" fill="#231F20" width="34.631" height="4.167"/>
		</g>
		<g>
			<path fill="#231F20" d="M205.268,424.986h97.25v-162.68h-97.25V424.986z M207.93,264.969h91.925v157.355H207.93V264.969z"/>
		</g>
	</g>
	<g>
		<g>
			<path fill="#58595B" d="M694.942,329.174h11.311c0.146,0,0.263-0.119,0.263-0.265v-11.308c0-0.146-0.119-0.271-0.263-0.271
				h-11.311c-0.148,0-0.268,0.122-0.268,0.271v11.308C694.675,329.055,694.794,329.174,694.942,329.174z"/>
		</g>
		<g>
			<path fill="#58595B" d="M715.79,390.36h11.311c0.146,0,0.266-0.119,0.266-0.265v-11.313c0-0.146-0.12-0.266-0.266-0.266H715.79
				c-0.147,0-0.268,0.12-0.268,0.266v11.313C715.522,390.241,715.643,390.36,715.79,390.36z"/>
		</g>
		<g>
			<path fill="#58595B" d="M694.942,349.57h11.311c0.144,0,0.263-0.12,0.263-0.263v-11.313c0-0.146-0.119-0.271-0.263-0.271h-11.311
				c-0.148,0-0.268,0.122-0.268,0.271v11.313C694.675,349.452,694.794,349.57,694.942,349.57z"/>
		</g>
		<g>
			<path fill="#58595B" d="M694.942,369.962h11.311c0.146,0,0.263-0.12,0.263-0.265v-11.311c0-0.143-0.119-0.265-0.263-0.265
				h-11.311c-0.148,0-0.268,0.12-0.268,0.265v11.311C694.675,369.843,694.794,369.962,694.942,369.962z"/>
		</g>
		<g>
			<path fill="#58595B" d="M715.79,369.962h11.311c0.146,0,0.266-0.12,0.266-0.265v-11.311c0-0.145-0.12-0.265-0.266-0.265H715.79
				c-0.147,0-0.268,0.12-0.268,0.265v11.311C715.522,369.843,715.643,369.962,715.79,369.962z"/>
		</g>
		<g>
			<path fill="#58595B" d="M715.79,329.174h11.311c0.146,0,0.266-0.119,0.266-0.265v-11.308c0-0.146-0.122-0.271-0.266-0.271H715.79
				c-0.147,0-0.268,0.122-0.268,0.271v11.308C715.522,329.055,715.643,329.174,715.79,329.174z"/>
		</g>
		<g>
			<path fill="#58595B" d="M736.646,369.962h11.305c0.148,0,0.271-0.12,0.271-0.265v-11.311c0-0.145-0.122-0.265-0.271-0.265
				h-11.305c-0.148,0-0.269,0.12-0.269,0.265v11.311C736.378,369.843,736.498,369.962,736.646,369.962z"/>
		</g>
		<g>
			<path fill="#58595B" d="M736.646,390.36h11.305c0.148,0,0.271-0.119,0.271-0.265v-11.313c0-0.148-0.119-0.266-0.271-0.266
				h-11.305c-0.148,0-0.269,0.12-0.269,0.266v11.313C736.378,390.241,736.498,390.36,736.646,390.36z"/>
		</g>
		<g>
			<path fill="#58595B" d="M736.646,410.751h32.16c0.146,0,0.266-0.118,0.266-0.263v-11.311c0-0.146-0.12-0.265-0.266-0.265h-32.16
				c-0.148,0-0.269,0.12-0.269,0.265v11.311C736.378,410.636,736.495,410.751,736.646,410.751z"/>
		</g>
		<g>
			<path fill="#58595B" d="M715.79,349.57h11.311c0.144,0,0.266-0.12,0.266-0.263v-11.313c0-0.146-0.122-0.271-0.266-0.271H715.79
				c-0.147,0-0.268,0.122-0.268,0.271v11.313C715.522,349.452,715.643,349.57,715.79,349.57z"/>
		</g>
		<g>
			<path fill="#58595B" d="M694.942,390.36h11.311c0.144,0,0.263-0.122,0.263-0.265v-11.313c0-0.146-0.117-0.266-0.263-0.266
				h-11.311c-0.148,0-0.268,0.12-0.268,0.266v11.313C694.675,390.241,694.794,390.36,694.942,390.36z"/>
		</g>
		<g>
			<path fill="#58595B" d="M674.09,390.36h11.307c0.148,0,0.269-0.119,0.269-0.265v-11.313c0-0.146-0.12-0.266-0.269-0.266H674.09
				c-0.149,0-0.271,0.12-0.271,0.266v11.313C673.819,390.241,673.941,390.36,674.09,390.36z"/>
		</g>
		<g>
			<path fill="#58595B" d="M632.384,390.36h11.31c0.146,0,0.265-0.119,0.265-0.265v-11.313c0-0.148-0.117-0.266-0.265-0.266h-11.31
				c-0.149,0-0.266,0.117-0.266,0.266v11.313C632.118,390.241,632.237,390.36,632.384,390.36z"/>
		</g>
		<g>
			<path fill="#58595B" d="M674.09,329.174h11.307c0.148,0,0.269-0.119,0.269-0.265v-11.308c0-0.148-0.12-0.271-0.269-0.271H674.09
				c-0.149,0-0.271,0.122-0.271,0.271v11.308C673.819,329.055,673.941,329.174,674.09,329.174z"/>
		</g>
		<g>
			<path fill="#58595B" d="M632.384,369.962h11.31c0.148,0,0.265-0.117,0.265-0.265v-11.311c0-0.145-0.12-0.265-0.265-0.265h-11.31
				c-0.146,0-0.266,0.12-0.266,0.265v11.311C632.118,369.845,632.235,369.962,632.384,369.962z"/>
		</g>
		<g>
			<path fill="#58595B" d="M653.236,369.962h11.308c0.149,0,0.269-0.12,0.269-0.265v-11.311c0-0.145-0.12-0.265-0.269-0.265h-11.308
				c-0.145,0-0.265,0.12-0.265,0.265v11.311C652.971,369.845,653.088,369.962,653.236,369.962z"/>
		</g>
		<g>
			<path fill="#58595B" d="M632.384,349.57h11.31c0.146,0,0.265-0.118,0.265-0.263v-11.313c0-0.149-0.12-0.271-0.265-0.271h-11.31
				c-0.146,0-0.266,0.122-0.266,0.271v11.313C632.118,349.452,632.237,349.57,632.384,349.57z"/>
		</g>
		<g>
			<path fill="#58595B" d="M632.384,329.174h11.31c0.148,0,0.265-0.117,0.265-0.265v-11.308c0-0.148-0.12-0.271-0.265-0.271h-11.31
				c-0.146,0-0.266,0.122-0.266,0.271v11.308C632.118,329.057,632.235,329.174,632.384,329.174z"/>
		</g>
		<g>
			<path fill="#58595B" d="M674.09,349.57h11.307c0.148,0,0.269-0.118,0.269-0.263v-11.313c0-0.149-0.12-0.271-0.269-0.271H674.09
				c-0.149,0-0.271,0.122-0.271,0.271v11.313C673.819,349.452,673.941,349.57,674.09,349.57z"/>
		</g>
		<g>
			<path fill="#58595B" d="M674.09,369.962h11.307c0.148,0,0.269-0.12,0.269-0.265v-11.311c0-0.145-0.12-0.265-0.269-0.265H674.09
				c-0.149,0-0.271,0.12-0.271,0.265v11.311C673.819,369.843,673.941,369.962,674.09,369.962z"/>
		</g>
		<g>
			<path fill="#58595B" d="M736.646,349.57h11.305c0.148,0,0.271-0.118,0.271-0.263v-11.313c0-0.149-0.122-0.271-0.271-0.271
				h-11.305c-0.148,0-0.269,0.122-0.269,0.271v11.313C736.378,349.452,736.498,349.57,736.646,349.57z"/>
		</g>
		<g>
			<path fill="#58595B" d="M653.236,349.57h11.308c0.149,0,0.269-0.118,0.269-0.263v-11.313c0-0.149-0.12-0.271-0.269-0.271h-11.308
				c-0.145,0-0.265,0.122-0.265,0.271v11.313C652.971,349.452,653.091,349.57,653.236,349.57z"/>
		</g>
		<g>
			<path fill="#58595B" d="M653.236,329.174h11.308c0.149,0,0.269-0.119,0.269-0.265v-11.308c0-0.148-0.12-0.271-0.269-0.271
				h-11.308c-0.145,0-0.265,0.122-0.265,0.271v11.308C652.971,329.057,653.088,329.174,653.236,329.174z"/>
		</g>
		<g>
			<path fill="#58595B" d="M653.236,390.36h11.308c0.149,0,0.269-0.119,0.269-0.265v-11.313c0-0.146-0.12-0.266-0.269-0.266h-11.308
				c-0.148,0-0.265,0.117-0.265,0.266v11.313C652.971,390.241,653.091,390.36,653.236,390.36z"/>
		</g>
		<g>
			<path fill="#58595B" d="M840.903,410.751h11.311c0.151,0,0.268-0.115,0.268-0.263v-11.311c0-0.146-0.119-0.265-0.268-0.265
				h-11.311c-0.146,0-0.266,0.12-0.266,0.265v11.311C840.638,410.636,840.756,410.751,840.903,410.751z"/>
		</g>
		<g>
			<path fill="#58595B" d="M840.903,390.36h11.311c0.148,0,0.268-0.119,0.268-0.265v-11.313c0-0.146-0.119-0.266-0.268-0.266
				h-11.311c-0.147,0-0.266,0.117-0.266,0.266v11.313C840.638,390.241,840.758,390.36,840.903,390.36z"/>
		</g>
		<g>
			<path fill="#58595B" d="M840.903,369.962h11.311c0.148,0,0.268-0.12,0.268-0.265v-11.311c0-0.145-0.119-0.265-0.268-0.265
				h-11.311c-0.146,0-0.266,0.12-0.266,0.265v11.311C840.638,369.845,840.756,369.962,840.903,369.962z"/>
		</g>
		<g>
			<path fill="#58595B" d="M820.051,349.57h11.31c0.144,0,0.266-0.12,0.266-0.263v-11.313c0-0.146-0.122-0.271-0.266-0.271h-11.31
				c-0.146,0-0.266,0.122-0.266,0.271v11.313C819.785,349.452,819.905,349.57,820.051,349.57z"/>
		</g>
		<g>
			<path fill="#58595B" d="M820.051,329.174h11.31c0.146,0,0.266-0.119,0.266-0.265v-11.308c0-0.146-0.122-0.271-0.266-0.271h-11.31
				c-0.146,0-0.266,0.122-0.266,0.271v11.308C819.785,329.057,819.902,329.174,820.051,329.174z"/>
		</g>
		<g>
			<rect x="640.275" y="431.165" fill="#D1D1D1" width="119.45" height="68.801"/>
		</g>
		<g>
			<path fill="#58595B" d="M789.654,398.912h-11.308c-0.146,0-0.265,0.12-0.265,0.265v11.311c0,0.148,0.117,0.263,0.265,0.263
				h11.308c0.151,0,0.269-0.115,0.269-0.263v-11.311C789.923,399.032,789.804,398.912,789.654,398.912z"/>
		</g>
		<g>
			<path fill="#58595B" d="M840.903,349.57h11.311c0.148,0,0.268-0.118,0.268-0.263v-11.313c0-0.149-0.119-0.271-0.268-0.271
				h-11.311c-0.146,0-0.266,0.122-0.266,0.271v11.313C840.638,349.452,840.758,349.57,840.903,349.57z"/>
		</g>
		<g>
			<path fill="#58595B" d="M736.646,329.174h11.305c0.151,0,0.271-0.117,0.271-0.265v-11.308c0-0.148-0.122-0.271-0.271-0.271
				h-11.305c-0.148,0-0.269,0.122-0.269,0.271v11.308C736.378,329.055,736.498,329.174,736.646,329.174z"/>
		</g>
		<g>
			<path fill="#58595B" d="M789.654,378.517h-11.308c-0.147,0-0.265,0.117-0.265,0.266v11.313c0,0.146,0.119,0.265,0.265,0.265
				h11.308c0.149,0,0.269-0.119,0.269-0.265v-11.313C789.923,378.634,789.806,378.517,789.654,378.517z"/>
		</g>
		<g>
			<path fill="#58595B" d="M840.903,329.174h11.311c0.148,0,0.268-0.119,0.268-0.265v-11.308c0-0.148-0.119-0.271-0.268-0.271
				h-11.311c-0.146,0-0.266,0.122-0.266,0.271v11.308C840.638,329.057,840.756,329.174,840.903,329.174z"/>
		</g>
		<g>
			<path fill="#58595B" d="M820.051,369.962h11.31c0.146,0,0.266-0.12,0.266-0.265v-11.311c0-0.145-0.12-0.265-0.266-0.265h-11.31
				c-0.146,0-0.266,0.12-0.266,0.265v11.311C819.785,369.845,819.902,369.962,820.051,369.962z"/>
		</g>
		<g>
			<path fill="#58595B" d="M799.2,410.751h11.308c0.148,0,0.268-0.118,0.268-0.263v-11.311c0-0.143-0.122-0.265-0.268-0.265H799.2
				c-0.146,0-0.269,0.123-0.269,0.265v11.311C798.932,410.633,799.052,410.751,799.2,410.751z"/>
		</g>
		<g>
			<path fill="#58595B" d="M778.347,329.174h11.308c0.151,0,0.269-0.117,0.269-0.265v-11.308c0-0.148-0.119-0.271-0.269-0.271
				h-11.308c-0.146,0-0.265,0.122-0.265,0.271v11.308C778.082,329.057,778.199,329.174,778.347,329.174z"/>
		</g>
		<g>
			<path fill="#58595B" d="M757.496,329.174h11.311c0.146,0,0.266-0.119,0.266-0.265v-11.308c0-0.146-0.122-0.271-0.266-0.271
				h-11.311c-0.143,0-0.265,0.125-0.265,0.271v11.308C757.231,329.055,757.351,329.174,757.496,329.174z"/>
		</g>
		<g>
			<path fill="#58595B" d="M757.496,349.57h19.221c0.752,0,1.365,0.613,1.365,1.365v18.763c0,0.148,0.117,0.265,0.265,0.265h11.308
				c0.151,0,0.269-0.117,0.269-0.265v-31.703c0-0.149-0.119-0.271-0.269-0.271h-32.158c-0.143,0-0.265,0.125-0.265,0.271v11.313
				C757.231,349.45,757.354,349.57,757.496,349.57z"/>
		</g>
		<g>
			<path fill="#58595B" d="M757.496,369.962h11.311c0.146,0,0.266-0.12,0.266-0.265v-11.311c0-0.145-0.12-0.265-0.266-0.265h-11.311
				c-0.146,0-0.265,0.12-0.265,0.265v11.311C757.231,369.843,757.351,369.962,757.496,369.962z"/>
		</g>
		<g>
			<path fill="#58595B" d="M820.051,410.751h11.31c0.146,0,0.266-0.118,0.266-0.263v-11.311c0-0.146-0.12-0.265-0.266-0.265h-11.31
				c-0.146,0-0.266,0.12-0.266,0.265v11.311C819.785,410.636,819.902,410.751,820.051,410.751z"/>
		</g>
		<g>
			<path fill="#58595B" d="M799.2,369.962h11.308c0.148,0,0.268-0.12,0.268-0.265v-11.311c0-0.143-0.122-0.265-0.268-0.265H799.2
				c-0.146,0-0.269,0.122-0.269,0.265v11.311C798.932,369.843,799.052,369.962,799.2,369.962z"/>
		</g>
		<g>
			<path fill="#58595B" d="M799.2,329.174h11.308c0.148,0,0.268-0.119,0.268-0.265v-11.308c0-0.146-0.122-0.271-0.268-0.271H799.2
				c-0.146,0-0.269,0.125-0.269,0.271v11.308C798.932,329.055,799.052,329.174,799.2,329.174z"/>
		</g>
		<g>
			<path fill="#58595B" d="M820.051,390.36h11.31c0.146,0,0.266-0.119,0.266-0.265v-11.313c0-0.146-0.12-0.266-0.266-0.266h-11.31
				c-0.148,0-0.266,0.117-0.266,0.266v11.313C819.785,390.241,819.905,390.36,820.051,390.36z"/>
		</g>
		<g>
			<path fill="#58595B" d="M799.2,349.57h11.308c0.146,0,0.268-0.12,0.268-0.263v-11.313c0-0.146-0.122-0.271-0.268-0.271H799.2
				c-0.146,0-0.269,0.125-0.269,0.271v11.313C798.932,349.45,799.055,349.57,799.2,349.57z"/>
		</g>
		<g>
			<path fill="#58595B" d="M879.905,60.042c0-5.453-4.436-9.889-9.889-9.889H529.982c-5.453,0-9.886,4.436-9.886,9.889v208.146
				c0,5.455,4.434,9.891,9.886,9.891h58.056c0.751,0,1.362,0.611,1.362,1.36v0.302v1.066v11.932h221.198v-11.932v-1.066v-0.302
				c0-0.749,0.611-1.36,1.363-1.36h58.055c5.453,0,9.889-4.436,9.889-9.891V60.042z M867.973,264.782
				c0,0.751-0.61,1.362-1.361,1.362h-333.22c-0.751,0-1.362-0.611-1.362-1.362V63.454c0-0.751,0.611-1.365,1.362-1.365h333.22
				c0.751,0,1.361,0.613,1.361,1.365V264.782z"/>
		</g>
		<g>
			<path fill="#58595B" d="M569.829,369.962h11.311c0.146,0,0.262-0.12,0.262-0.265v-11.311c0-0.145-0.117-0.265-0.262-0.265
				h-11.311c-0.145,0-0.27,0.122-0.27,0.265v11.311C569.559,369.843,569.681,369.962,569.829,369.962z"/>
		</g>
		<g>
			<path fill="#58595B" d="M569.829,349.57h11.311c0.146,0,0.262-0.118,0.262-0.263v-11.313c0-0.149-0.117-0.271-0.262-0.271
				h-11.311c-0.145,0-0.27,0.125-0.27,0.271v11.313C569.559,349.45,569.684,349.57,569.829,349.57z"/>
		</g>
		<g>
			<path fill="#58595B" d="M569.829,390.36h11.311c0.146,0,0.262-0.119,0.262-0.265v-11.313c0-0.146-0.117-0.266-0.262-0.266
				h-11.311c-0.148,0-0.27,0.12-0.27,0.266v11.313C569.559,390.238,569.684,390.36,569.829,390.36z"/>
		</g>
		<g>
			<path fill="#58595B" d="M611.533,410.751h115.568c0.146,0,0.266-0.118,0.266-0.263v-11.311c0-0.146-0.12-0.265-0.266-0.265
				H611.533c-0.146,0-0.265,0.12-0.265,0.265v11.311C611.268,410.633,611.387,410.751,611.533,410.751z"/>
		</g>
		<g>
			<path fill="#58595B" d="M611.533,390.36h11.308c0.146,0,0.268-0.122,0.268-0.265v-11.313c0-0.146-0.12-0.266-0.268-0.266h-11.308
				c-0.146,0-0.265,0.12-0.265,0.266v11.313C611.268,390.241,611.387,390.36,611.533,390.36z"/>
		</g>
		<g>
			<path fill="#58595B" d="M569.829,410.751h32.161c0.146,0,0.265-0.118,0.265-0.263v-11.311c0-0.146-0.12-0.265-0.265-0.265
				h-32.161c-0.145,0-0.27,0.123-0.27,0.265v11.311C569.559,410.633,569.681,410.751,569.829,410.751z"/>
		</g>
		<g>
			<path fill="#58595B" d="M590.68,390.36h11.311c0.146,0,0.265-0.119,0.265-0.265v-11.313c0-0.146-0.12-0.266-0.265-0.266H590.68
				c-0.146,0-0.265,0.12-0.265,0.266v11.313C590.415,390.241,590.534,390.36,590.68,390.36z"/>
		</g>
		<g>
			<path fill="#58595B" d="M590.68,369.962h11.311c0.146,0,0.265-0.12,0.265-0.265v-11.311c0-0.145-0.12-0.265-0.265-0.265H590.68
				c-0.146,0-0.265,0.12-0.265,0.265v11.311C590.415,369.843,590.534,369.962,590.68,369.962z"/>
		</g>
		<g>
			<path fill="#58595B" d="M590.68,349.57h11.311c0.143,0,0.265-0.12,0.265-0.263v-11.313c0-0.146-0.122-0.271-0.265-0.271H590.68
				c-0.143,0-0.265,0.125-0.265,0.271v11.313C590.415,349.45,590.537,349.57,590.68,349.57z"/>
		</g>
		<g>
			<path fill="#58595B" d="M569.829,329.174h11.311c0.146,0,0.262-0.119,0.262-0.265v-11.308c0-0.148-0.117-0.271-0.262-0.271
				h-11.311c-0.145,0-0.27,0.125-0.27,0.271v11.308C569.559,329.055,569.681,329.174,569.829,329.174z"/>
		</g>
		<g>
			<path fill="#58595B" d="M548.979,329.174h11.308c0.146,0,0.265-0.119,0.265-0.265v-11.308c0-0.146-0.123-0.271-0.265-0.271
				h-11.308c-0.148,0-0.268,0.122-0.268,0.271v11.308C548.711,329.055,548.831,329.174,548.979,329.174z"/>
		</g>
		<g>
			<path fill="#58595B" d="M590.68,329.174h11.311c0.146,0,0.265-0.119,0.265-0.265v-11.308c0-0.146-0.122-0.271-0.265-0.271H590.68
				c-0.143,0-0.265,0.125-0.265,0.271v11.308C590.415,329.055,590.534,329.174,590.68,329.174z"/>
		</g>
		<g>
			<path fill="#58595B" d="M611.533,349.57h11.308c0.146,0,0.268-0.12,0.268-0.263v-11.313c0-0.146-0.122-0.271-0.268-0.271h-11.308
				c-0.143,0-0.265,0.125-0.265,0.271v11.313C611.268,349.45,611.39,349.57,611.533,349.57z"/>
		</g>
		<g>
			<path fill="#D1D1D1" d="M540.531,419.552h318.941V308.797H540.531V419.552z M792.649,410.488c0,1.648-1.343,2.99-2.995,2.99
				h-11.308c-1.65,0-2.993-1.342-2.993-2.99v-11.311c0-1.651,1.343-2.992,2.993-2.992h11.308c1.652,0,2.995,1.341,2.995,2.992
				V410.488z M792.649,390.095c0,1.651-1.343,2.993-2.995,2.993h-11.308c-1.65,0-2.993-1.342-2.993-2.993v-11.313
				c0-1.651,1.343-2.996,2.993-2.996h11.308c1.652,0,2.995,1.344,2.995,2.996V390.095z M837.911,317.601
				c0-1.654,1.342-2.998,2.992-2.998h11.311c1.651,0,2.995,1.344,2.995,2.998v11.308c0,1.651-1.344,2.995-2.995,2.995h-11.311
				c-1.65,0-2.992-1.344-2.992-2.995V317.601z M837.911,337.994c0-1.651,1.342-2.996,2.992-2.996h11.311
				c1.651,0,2.995,1.344,2.995,2.996v11.313c0,1.651-1.344,2.993-2.995,2.993h-11.311c-1.65,0-2.992-1.342-2.992-2.993V337.994z
				 M837.911,358.386c0-1.651,1.342-2.992,2.992-2.992h11.311c1.651,0,2.995,1.341,2.995,2.992v11.311
				c0,1.654-1.344,2.998-2.995,2.998h-11.311c-1.65,0-2.992-1.344-2.992-2.998V358.386z M837.911,378.782
				c0-1.651,1.342-2.996,2.992-2.996h11.311c1.651,0,2.995,1.344,2.995,2.996v11.313c0,1.651-1.344,2.993-2.995,2.993h-11.311
				c-1.65,0-2.992-1.342-2.992-2.993V378.782z M837.911,399.177c0-1.651,1.342-2.992,2.992-2.992h11.311
				c1.651,0,2.995,1.341,2.995,2.992v11.311c0,1.648-1.344,2.99-2.995,2.99h-11.311c-1.65,0-2.992-1.342-2.992-2.99V399.177z
				 M817.058,317.601c0-1.654,1.341-2.998,2.993-2.998h11.31c1.652,0,2.993,1.344,2.993,2.998v11.308
				c0,1.651-1.341,2.995-2.993,2.995h-11.31c-1.652,0-2.993-1.344-2.993-2.995V317.601z M817.058,337.994
				c0-1.651,1.341-2.996,2.993-2.996h11.31c1.652,0,2.993,1.344,2.993,2.996v11.313c0,1.651-1.341,2.993-2.993,2.993h-11.31
				c-1.652,0-2.993-1.342-2.993-2.993V337.994z M817.058,358.386c0-1.651,1.341-2.992,2.993-2.992h11.31
				c1.652,0,2.993,1.341,2.993,2.992v11.311c0,1.654-1.341,2.998-2.993,2.998h-11.31c-1.652,0-2.993-1.344-2.993-2.998V358.386z
				 M817.058,378.782c0-1.651,1.341-2.996,2.993-2.996h11.31c1.652,0,2.993,1.344,2.993,2.996v11.313
				c0,1.651-1.341,2.993-2.993,2.993h-11.31c-1.652,0-2.993-1.342-2.993-2.993V378.782z M817.058,399.177
				c0-1.651,1.341-2.992,2.993-2.992h11.31c1.652,0,2.993,1.341,2.993,2.992v11.311c0,1.648-1.341,2.99-2.993,2.99h-11.31
				c-1.652,0-2.993-1.342-2.993-2.99V399.177z M796.204,317.601c0-1.654,1.345-2.998,2.996-2.998h11.308
				c1.654,0,2.998,1.344,2.998,2.998v11.308c0,1.651-1.344,2.995-2.998,2.995H799.2c-1.651,0-2.996-1.344-2.996-2.995V317.601z
				 M796.204,337.994c0-1.651,1.345-2.996,2.996-2.996h11.308c1.654,0,2.998,1.344,2.998,2.996v11.313
				c0,1.651-1.344,2.993-2.998,2.993H799.2c-1.651,0-2.996-1.342-2.996-2.993V337.994z M796.204,358.386
				c0-1.651,1.345-2.992,2.996-2.992h11.308c1.654,0,2.998,1.341,2.998,2.992v11.311c0,1.654-1.344,2.998-2.998,2.998H799.2
				c-1.651,0-2.996-1.344-2.996-2.998V358.386z M796.204,399.177c0-1.651,1.345-2.992,2.996-2.992h11.308
				c1.654,0,2.998,1.341,2.998,2.992v11.311c0,1.648-1.344,2.99-2.998,2.99H799.2c-1.651,0-2.996-1.342-2.996-2.99V399.177z
				 M775.354,317.601c0-1.654,1.343-2.998,2.993-2.998h11.308c1.652,0,2.995,1.344,2.995,2.998v11.308
				c0,1.651-1.343,2.995-2.995,2.995h-11.308c-1.65,0-2.993-1.344-2.993-2.995V317.601z M754.501,317.601
				c0-1.654,1.345-2.998,2.995-2.998h11.311c1.651,0,2.993,1.344,2.993,2.998v11.308c0,1.651-1.342,2.995-2.993,2.995h-11.311
				c-1.65,0-2.995-1.344-2.995-2.995V317.601z M754.501,337.994c0-1.651,1.345-2.996,2.995-2.996h32.158
				c1.652,0,2.995,1.344,2.995,2.996v31.703c0,1.654-1.343,2.998-2.995,2.998h-11.308c-1.65,0-2.993-1.344-2.993-2.998V352.3
				h-17.857c-1.65,0-2.995-1.342-2.995-2.993V337.994z M754.501,358.386c0-1.651,1.345-2.992,2.995-2.992h11.311
				c1.651,0,2.993,1.341,2.993,2.992v11.311c0,1.654-1.342,2.998-2.993,2.998h-11.311c-1.65,0-2.995-1.344-2.995-2.998V358.386z
				 M733.65,317.601c0-1.654,1.345-2.998,2.996-2.998h11.305c1.651,0,2.996,1.344,2.996,2.998v11.308
				c0,1.651-1.345,2.995-2.996,2.995h-11.305c-1.651,0-2.996-1.344-2.996-2.995V317.601z M733.65,337.994
				c0-1.651,1.345-2.996,2.996-2.996h11.305c1.651,0,2.996,1.344,2.996,2.996v11.313c0,1.651-1.345,2.993-2.996,2.993h-11.305
				c-1.651,0-2.996-1.342-2.996-2.993V337.994z M733.65,358.386c0-1.651,1.345-2.992,2.996-2.992h11.305
				c1.651,0,2.996,1.341,2.996,2.992v11.311c0,1.654-1.345,2.998-2.996,2.998h-11.305c-1.651,0-2.996-1.344-2.996-2.998V358.386z
				 M733.65,378.782c0-1.651,1.345-2.996,2.996-2.996h11.305c1.651,0,2.996,1.344,2.996,2.996v11.313
				c0,1.651-1.345,2.993-2.996,2.993h-11.305c-1.651,0-2.996-1.342-2.996-2.993V378.782z M733.65,399.177
				c0-1.651,1.345-2.992,2.996-2.992h32.16c1.651,0,2.993,1.341,2.993,2.992v11.311c0,1.648-1.342,2.99-2.993,2.99h-32.16
				c-1.651,0-2.996-1.342-2.996-2.99V399.177z M712.797,317.601c0-1.654,1.342-2.998,2.993-2.998h11.311
				c1.651,0,2.993,1.344,2.993,2.998v11.308c0,1.651-1.342,2.995-2.993,2.995H715.79c-1.651,0-2.993-1.344-2.993-2.995V317.601z
				 M712.797,337.994c0-1.651,1.342-2.996,2.993-2.996h11.311c1.651,0,2.993,1.344,2.993,2.996v11.313
				c0,1.651-1.342,2.993-2.993,2.993H715.79c-1.651,0-2.993-1.342-2.993-2.993V337.994z M712.797,358.386
				c0-1.651,1.342-2.992,2.993-2.992h11.311c1.651,0,2.993,1.341,2.993,2.992v11.311c0,1.654-1.342,2.998-2.993,2.998H715.79
				c-1.651,0-2.993-1.344-2.993-2.998V358.386z M712.797,378.782c0-1.651,1.342-2.996,2.993-2.996h11.311
				c1.651,0,2.993,1.344,2.993,2.996v11.313c0,1.651-1.342,2.993-2.993,2.993H715.79c-1.651,0-2.993-1.342-2.993-2.993V378.782z
				 M691.947,317.601c0-1.654,1.345-2.998,2.996-2.998h11.311c1.648,0,2.99,1.344,2.99,2.998v11.308c0,1.651-1.342,2.995-2.99,2.995
				h-11.311c-1.651,0-2.996-1.344-2.996-2.995V317.601z M691.947,337.994c0-1.651,1.345-2.996,2.996-2.996h11.311
				c1.648,0,2.99,1.344,2.99,2.996v11.313c0,1.651-1.342,2.993-2.99,2.993h-11.311c-1.651,0-2.996-1.342-2.996-2.993V337.994z
				 M691.947,358.386c0-1.651,1.345-2.992,2.996-2.992h11.311c1.648,0,2.99,1.341,2.99,2.992v11.311c0,1.654-1.342,2.998-2.99,2.998
				h-11.311c-1.651,0-2.996-1.344-2.996-2.998V358.386z M691.947,378.782c0-1.651,1.345-2.996,2.996-2.996h11.311
				c1.648,0,2.99,1.344,2.99,2.996v11.313c0,1.651-1.342,2.993-2.99,2.993h-11.311c-1.651,0-2.996-1.342-2.996-2.993V378.782z
				 M671.091,317.601c0-1.654,1.345-2.998,2.999-2.998h11.307c1.651,0,2.993,1.344,2.993,2.998v11.308
				c0,1.651-1.342,2.995-2.993,2.995H674.09c-1.654,0-2.999-1.344-2.999-2.995V317.601z M671.091,337.994
				c0-1.651,1.345-2.996,2.999-2.996h11.307c1.651,0,2.993,1.344,2.993,2.996v11.313c0,1.651-1.342,2.993-2.993,2.993H674.09
				c-1.654,0-2.999-1.342-2.999-2.993V337.994z M671.091,358.386c0-1.651,1.345-2.992,2.999-2.992h11.307
				c1.651,0,2.993,1.341,2.993,2.992v11.311c0,1.654-1.342,2.998-2.993,2.998H674.09c-1.654,0-2.999-1.344-2.999-2.998V358.386z
				 M671.091,378.782c0-1.651,1.345-2.996,2.999-2.996h11.307c1.651,0,2.993,1.344,2.993,2.996v11.313
				c0,1.651-1.342,2.993-2.993,2.993H674.09c-1.654,0-2.999-1.342-2.999-2.993V378.782z M650.241,317.601
				c0-1.654,1.344-2.998,2.995-2.998h11.308c1.651,0,2.996,1.344,2.996,2.998v11.308c0,1.651-1.344,2.995-2.996,2.995h-11.308
				c-1.65,0-2.995-1.344-2.995-2.995V317.601z M650.241,337.994c0-1.651,1.344-2.996,2.995-2.996h11.308
				c1.651,0,2.996,1.344,2.996,2.996v11.313c0,1.651-1.344,2.993-2.996,2.993h-11.308c-1.65,0-2.995-1.342-2.995-2.993V337.994z
				 M650.241,358.386c0-1.651,1.344-2.992,2.995-2.992h11.308c1.651,0,2.996,1.341,2.996,2.992v11.311
				c0,1.654-1.344,2.998-2.996,2.998h-11.308c-1.65,0-2.995-1.344-2.995-2.998V358.386z M650.241,378.782
				c0-1.651,1.344-2.996,2.995-2.996h11.308c1.651,0,2.996,1.344,2.996,2.996v11.313c0,1.651-1.344,2.993-2.996,2.993h-11.308
				c-1.65,0-2.995-1.342-2.995-2.993V378.782z M629.391,317.601c0-1.654,1.341-2.998,2.993-2.998h11.31
				c1.651,0,2.993,1.344,2.993,2.998v11.308c0,1.651-1.342,2.995-2.993,2.995h-11.31c-1.652,0-2.993-1.344-2.993-2.995V317.601z
				 M629.391,337.994c0-1.651,1.341-2.996,2.993-2.996h11.31c1.651,0,2.993,1.344,2.993,2.996v11.313
				c0,1.651-1.342,2.993-2.993,2.993h-11.31c-1.652,0-2.993-1.342-2.993-2.993V337.994z M629.391,358.386
				c0-1.651,1.341-2.992,2.993-2.992h11.31c1.651,0,2.993,1.341,2.993,2.992v11.311c0,1.654-1.342,2.998-2.993,2.998h-11.31
				c-1.652,0-2.993-1.344-2.993-2.998V358.386z M629.391,378.782c0-1.651,1.341-2.996,2.993-2.996h11.31
				c1.651,0,2.993,1.344,2.993,2.996v11.313c0,1.651-1.342,2.993-2.993,2.993h-11.31c-1.652,0-2.993-1.342-2.993-2.993V378.782z
				 M608.538,317.601c0-1.654,1.344-2.998,2.995-2.998h11.308c1.654,0,2.998,1.344,2.998,2.998v11.308
				c0,1.651-1.344,2.995-2.998,2.995h-11.308c-1.651,0-2.995-1.344-2.995-2.995V317.601z M608.538,337.994
				c0-1.651,1.344-2.996,2.995-2.996h11.308c1.654,0,2.998,1.344,2.998,2.996v11.313c0,1.651-1.344,2.993-2.998,2.993h-11.308
				c-1.651,0-2.995-1.342-2.995-2.993V337.994z M608.538,358.386c0-1.651,1.344-2.992,2.995-2.992h11.308
				c1.654,0,2.998,1.341,2.998,2.992v11.311c0,1.654-1.344,2.998-2.998,2.998h-11.308c-1.651,0-2.995-1.344-2.995-2.998V358.386z
				 M608.538,378.782c0-1.651,1.344-2.996,2.995-2.996h11.308c1.654,0,2.998,1.344,2.998,2.996v11.313
				c0,1.651-1.344,2.993-2.998,2.993h-11.308c-1.651,0-2.995-1.342-2.995-2.993V378.782z M608.538,399.177
				c0-1.651,1.344-2.992,2.995-2.992h115.568c1.651,0,2.993,1.341,2.993,2.992v11.311c0,1.648-1.342,2.99-2.993,2.99H611.533
				c-1.651,0-2.995-1.342-2.995-2.99V399.177z M587.687,317.601c0-1.654,1.342-2.998,2.993-2.998h11.311
				c1.651,0,2.993,1.344,2.993,2.998v11.308c0,1.651-1.341,2.995-2.993,2.995H590.68c-1.651,0-2.993-1.344-2.993-2.995V317.601z
				 M587.687,337.994c0-1.651,1.342-2.996,2.993-2.996h11.311c1.651,0,2.993,1.344,2.993,2.996v11.313
				c0,1.651-1.341,2.993-2.993,2.993H590.68c-1.651,0-2.993-1.342-2.993-2.993V337.994z M587.687,358.386
				c0-1.651,1.342-2.992,2.993-2.992h11.311c1.651,0,2.993,1.341,2.993,2.992v11.311c0,1.654-1.341,2.998-2.993,2.998H590.68
				c-1.651,0-2.993-1.344-2.993-2.998V358.386z M587.687,378.782c0-1.651,1.342-2.996,2.993-2.996h11.311
				c1.651,0,2.993,1.344,2.993,2.996v11.313c0,1.651-1.341,2.993-2.993,2.993H590.68c-1.651,0-2.993-1.342-2.993-2.993V378.782z
				 M566.832,317.601c0-1.654,1.344-2.998,2.998-2.998h11.311c1.648,0,2.99,1.344,2.99,2.998v11.308c0,1.651-1.341,2.995-2.99,2.995
				h-11.311c-1.653,0-2.998-1.344-2.998-2.995V317.601z M566.832,337.994c0-1.651,1.344-2.996,2.998-2.996h11.311
				c1.648,0,2.99,1.344,2.99,2.996v11.313c0,1.651-1.341,2.993-2.99,2.993h-11.311c-1.653,0-2.998-1.342-2.998-2.993V337.994z
				 M566.832,358.386c0-1.651,1.344-2.992,2.998-2.992h11.311c1.648,0,2.99,1.341,2.99,2.992v11.311c0,1.654-1.341,2.998-2.99,2.998
				h-11.311c-1.653,0-2.998-1.344-2.998-2.998V358.386z M566.832,378.782c0-1.651,1.344-2.996,2.998-2.996h11.311
				c1.648,0,2.99,1.344,2.99,2.996v11.313c0,1.651-1.341,2.993-2.99,2.993h-11.311c-1.653,0-2.998-1.342-2.998-2.993V378.782z
				 M566.832,399.177c0-1.651,1.344-2.992,2.998-2.992h32.161c1.651,0,2.993,1.341,2.993,2.992v11.311
				c0,1.648-1.341,2.99-2.993,2.99h-32.161c-1.653,0-2.998-1.342-2.998-2.99V399.177z M545.983,317.601
				c0-1.654,1.345-2.998,2.996-2.998h11.308c1.651,0,2.992,1.344,2.992,2.998v11.308c0,1.651-1.341,2.995-2.992,2.995h-11.308
				c-1.651,0-2.996-1.344-2.996-2.995V317.601z M545.983,337.994c0-1.651,1.345-2.996,2.996-2.996h11.308
				c1.651,0,2.992,1.344,2.992,2.996v11.313c0,1.651-1.341,2.993-2.992,2.993h-11.308c-1.651,0-2.996-1.342-2.996-2.993V337.994z
				 M545.983,358.386c0-1.651,1.345-2.992,2.996-2.992h11.308c1.651,0,2.992,1.341,2.992,2.992v11.311
				c0,1.654-1.341,2.998-2.992,2.998h-11.308c-1.651,0-2.996-1.344-2.996-2.998V358.386z M545.983,378.782
				c0-1.651,1.345-2.996,2.996-2.996h11.308c1.651,0,2.992,1.344,2.992,2.996v11.313c0,1.651-1.341,2.993-2.992,2.993h-11.308
				c-1.651,0-2.996-1.342-2.996-2.993V378.782z M545.983,399.177c0-1.651,1.345-2.992,2.996-2.992h11.308
				c1.651,0,2.992,1.341,2.992,2.992v11.311c0,1.648-1.341,2.99-2.992,2.99h-11.308c-1.651,0-2.996-1.342-2.996-2.99V399.177z"/>
		</g>
		<g>
			<rect x="534.756" y="64.819" fill="#A6FF91" width="330.49" height="198.601"/>
		</g>
		<g>
			<path fill="#FFFFFF" d="M813.326,280.807v13.297c0,0.751-0.613,1.362-1.364,1.362H588.038c-0.751,0-1.365-0.611-1.365-1.362
				v-13.297h-56.69c-5.453,0-9.886,4.436-9.886,9.888v208.146c0,5.455,4.434,9.891,9.886,9.891h340.034
				c5.453,0,9.889-4.436,9.889-9.891V290.695c0-5.453-4.436-9.888-9.889-9.888H813.326z M762.455,501.334
				c0,0.751-0.613,1.365-1.365,1.365H638.913c-0.751,0-1.363-0.614-1.363-1.365v-71.532c0-0.751,0.612-1.365,1.363-1.365H761.09
				c0.752,0,1.365,0.614,1.365,1.365V501.334z M862.201,420.917c0,0.751-0.613,1.363-1.364,1.363H539.163
				c-0.751,0-1.365-0.611-1.365-1.363V307.432c0-0.751,0.614-1.362,1.365-1.362h321.674c0.751,0,1.364,0.611,1.364,1.362V420.917z"
				/>
		</g>
		<g>
			<path fill="#58595B" d="M611.533,329.174h11.308c0.148,0,0.268-0.119,0.268-0.265v-11.308c0-0.146-0.122-0.271-0.268-0.271
				h-11.308c-0.143,0-0.265,0.125-0.265,0.271v11.308C611.268,329.055,611.387,329.174,611.533,329.174z"/>
		</g>
		<g>
			<path fill="#58595B" d="M611.533,369.962h11.308c0.148,0,0.268-0.12,0.268-0.265v-11.311c0-0.143-0.122-0.265-0.268-0.265
				h-11.308c-0.146,0-0.265,0.12-0.265,0.265v11.311C611.268,369.843,611.387,369.962,611.533,369.962z"/>
		</g>
		<g>
			<path fill="#58595B" d="M548.979,369.962h11.308c0.146,0,0.265-0.12,0.265-0.265v-11.311c0-0.145-0.12-0.265-0.265-0.265h-11.308
				c-0.148,0-0.268,0.12-0.268,0.265v11.311C548.711,369.843,548.831,369.962,548.979,369.962z"/>
		</g>
		<g>
			<path fill="#58595B" d="M548.979,410.751h11.308c0.146,0,0.265-0.118,0.265-0.263v-11.311c0-0.146-0.12-0.265-0.265-0.265
				h-11.308c-0.148,0-0.268,0.12-0.268,0.265v11.311C548.711,410.636,548.828,410.751,548.979,410.751z"/>
		</g>
		<g>
			<path fill="#58595B" d="M548.979,349.57h11.308c0.143,0,0.265-0.12,0.265-0.263v-11.313c0-0.146-0.123-0.271-0.265-0.271h-11.308
				c-0.148,0-0.268,0.122-0.268,0.271v11.313C548.711,349.452,548.831,349.57,548.979,349.57z"/>
		</g>
		<g>
			<path fill="#58595B" d="M548.979,390.36h11.308c0.146,0,0.265-0.119,0.265-0.265v-11.313c0-0.146-0.12-0.266-0.265-0.266h-11.308
				c-0.148,0-0.268,0.12-0.268,0.266v11.313C548.711,390.241,548.831,390.36,548.979,390.36z"/>
		</g>
		<g>
			<path fill="#231F20" d="M860.837,306.069H539.163c-0.751,0-1.365,0.611-1.365,1.362v113.485c0,0.751,0.614,1.363,1.365,1.363
				h321.674c0.751,0,1.364-0.611,1.364-1.363V307.432C862.201,306.68,861.588,306.069,860.837,306.069z M859.472,419.552H540.531
				V308.797h318.941V419.552z"/>
		</g>
		<g>
			<path fill="#231F20" d="M882.633,268.188V60.042c0-6.956-5.66-12.616-12.616-12.616H529.982c-6.956,0-12.616,5.661-12.616,12.616
				v208.146c0,4.727,2.741,9.064,6.909,11.196l-0.13,0.052l0.132,0.052c-4.223,2.148-6.911,6.402-6.911,11.207v208.146
				c0,6.958,5.661,12.618,12.616,12.618h340.034c6.956,0,12.616-5.66,12.616-12.618V290.695c0-4.805-2.686-9.059-6.906-11.207
				l0.133-0.052l-0.129-0.052C879.892,277.252,882.633,272.915,882.633,268.188z M879.905,290.695v208.146
				c0,5.455-4.436,9.891-9.889,9.891H529.982c-5.453,0-9.886-4.436-9.886-9.891V290.695c0-5.453,4.434-9.888,9.886-9.888h56.69
				v13.297c0,0.751,0.614,1.362,1.365,1.362h223.924c0.751,0,1.364-0.611,1.364-1.362v-13.297h56.69
				C875.47,280.807,879.905,285.242,879.905,290.695z M870.017,278.079h-58.055c-0.752,0-1.363,0.611-1.363,1.36v0.302v1.066v11.932
				H589.4v-11.932v-1.066v-0.302c0-0.749-0.611-1.36-1.362-1.36h-58.056c-5.453,0-9.886-4.436-9.886-9.891V60.042
				c0-5.453,4.434-9.889,9.886-9.889h340.034c5.453,0,9.889,4.436,9.889,9.889v208.146
				C879.905,273.643,875.47,278.079,870.017,278.079z"/>
		</g>
		<g>
			<path fill="#231F20" d="M866.611,62.089h-333.22c-0.751,0-1.362,0.613-1.362,1.365v201.328c0,0.751,0.611,1.362,1.362,1.362
				h333.22c0.751,0,1.361-0.611,1.361-1.362V63.454C867.973,62.702,867.362,62.089,866.611,62.089z M865.246,263.419h-330.49V64.819
				h330.49V263.419z"/>
		</g>
		<g>
			<path fill="#231F20" d="M548.979,331.904h11.308c1.651,0,2.992-1.344,2.992-2.995v-11.308c0-1.654-1.341-2.998-2.992-2.998
				h-11.308c-1.651,0-2.996,1.344-2.996,2.998v11.308C545.983,330.56,547.328,331.904,548.979,331.904z M548.711,317.601
				c0-0.148,0.12-0.271,0.268-0.271h11.308c0.143,0,0.265,0.125,0.265,0.271v11.308c0,0.146-0.12,0.265-0.265,0.265h-11.308
				c-0.148,0-0.268-0.119-0.268-0.265V317.601z"/>
		</g>
		<g>
			<path fill="#231F20" d="M569.829,331.904h11.311c1.648,0,2.99-1.344,2.99-2.995v-11.308c0-1.654-1.341-2.998-2.99-2.998h-11.311
				c-1.653,0-2.998,1.344-2.998,2.998v11.308C566.832,330.56,568.176,331.904,569.829,331.904z M569.559,317.601
				c0-0.146,0.125-0.271,0.27-0.271h11.311c0.146,0,0.262,0.122,0.262,0.271v11.308c0,0.146-0.117,0.265-0.262,0.265h-11.311
				c-0.148,0-0.27-0.119-0.27-0.265V317.601z"/>
		</g>
		<g>
			<path fill="#231F20" d="M590.68,331.904h11.311c1.651,0,2.993-1.344,2.993-2.995v-11.308c0-1.654-1.341-2.998-2.993-2.998H590.68
				c-1.651,0-2.993,1.344-2.993,2.998v11.308C587.687,330.56,589.028,331.904,590.68,331.904z M590.415,317.601
				c0-0.146,0.123-0.271,0.265-0.271h11.311c0.143,0,0.265,0.125,0.265,0.271v11.308c0,0.146-0.12,0.265-0.265,0.265H590.68
				c-0.146,0-0.265-0.119-0.265-0.265V317.601z"/>
		</g>
		<g>
			<path fill="#231F20" d="M611.533,331.904h11.308c1.654,0,2.998-1.344,2.998-2.995v-11.308c0-1.654-1.344-2.998-2.998-2.998
				h-11.308c-1.651,0-2.995,1.344-2.995,2.998v11.308C608.538,330.56,609.882,331.904,611.533,331.904z M611.268,317.601
				c0-0.146,0.122-0.271,0.265-0.271h11.308c0.146,0,0.268,0.125,0.268,0.271v11.308c0,0.146-0.12,0.265-0.268,0.265h-11.308
				c-0.146,0-0.265-0.119-0.265-0.265V317.601z"/>
		</g>
		<g>
			<path fill="#231F20" d="M632.384,331.904h11.31c1.651,0,2.993-1.344,2.993-2.995v-11.308c0-1.654-1.342-2.998-2.993-2.998h-11.31
				c-1.652,0-2.993,1.344-2.993,2.998v11.308C629.391,330.56,630.732,331.904,632.384,331.904z M632.118,317.601
				c0-0.148,0.119-0.271,0.266-0.271h11.31c0.146,0,0.265,0.122,0.265,0.271v11.308c0,0.148-0.117,0.265-0.265,0.265h-11.31
				c-0.149,0-0.266-0.117-0.266-0.265V317.601z"/>
		</g>
		<g>
			<path fill="#231F20" d="M653.236,331.904h11.308c1.651,0,2.996-1.344,2.996-2.995v-11.308c0-1.654-1.344-2.998-2.996-2.998
				h-11.308c-1.65,0-2.995,1.344-2.995,2.998v11.308C650.241,330.56,651.585,331.904,653.236,331.904z M652.971,317.601
				c0-0.148,0.12-0.271,0.265-0.271h11.308c0.149,0,0.269,0.122,0.269,0.271v11.308c0,0.146-0.12,0.265-0.269,0.265h-11.308
				c-0.148,0-0.265-0.117-0.265-0.265V317.601z"/>
		</g>
		<g>
			<path fill="#231F20" d="M674.09,331.904h11.307c1.651,0,2.993-1.344,2.993-2.995v-11.308c0-1.654-1.342-2.998-2.993-2.998H674.09
				c-1.654,0-2.999,1.344-2.999,2.998v11.308C671.091,330.56,672.436,331.904,674.09,331.904z M673.819,317.601
				c0-0.148,0.122-0.271,0.271-0.271h11.307c0.148,0,0.269,0.122,0.269,0.271v11.308c0,0.146-0.12,0.265-0.269,0.265H674.09
				c-0.149,0-0.271-0.119-0.271-0.265V317.601z"/>
		</g>
		<g>
			<path fill="#231F20" d="M694.942,331.904h11.311c1.648,0,2.99-1.344,2.99-2.995v-11.308c0-1.654-1.342-2.998-2.99-2.998h-11.311
				c-1.651,0-2.996,1.344-2.996,2.998v11.308C691.947,330.56,693.292,331.904,694.942,331.904z M694.675,317.601
				c0-0.148,0.12-0.271,0.268-0.271h11.311c0.144,0,0.263,0.125,0.263,0.271v11.308c0,0.146-0.117,0.265-0.263,0.265h-11.311
				c-0.148,0-0.268-0.119-0.268-0.265V317.601z"/>
		</g>
		<g>
			<path fill="#231F20" d="M715.79,331.904h11.311c1.651,0,2.993-1.344,2.993-2.995v-11.308c0-1.654-1.342-2.998-2.993-2.998H715.79
				c-1.651,0-2.993,1.344-2.993,2.998v11.308C712.797,330.56,714.139,331.904,715.79,331.904z M715.522,317.601
				c0-0.148,0.12-0.271,0.268-0.271h11.311c0.144,0,0.266,0.125,0.266,0.271v11.308c0,0.146-0.12,0.265-0.266,0.265H715.79
				c-0.147,0-0.268-0.119-0.268-0.265V317.601z"/>
		</g>
		<g>
			<path fill="#231F20" d="M736.646,331.904h11.305c1.651,0,2.996-1.344,2.996-2.995v-11.308c0-1.654-1.345-2.998-2.996-2.998
				h-11.305c-1.651,0-2.996,1.344-2.996,2.998v11.308C733.65,330.56,734.995,331.904,736.646,331.904z M736.378,317.601
				c0-0.148,0.12-0.271,0.269-0.271h11.305c0.148,0,0.271,0.122,0.271,0.271v11.308c0,0.148-0.119,0.265-0.271,0.265h-11.305
				c-0.148,0-0.269-0.119-0.269-0.265V317.601z"/>
		</g>
		<g>
			<path fill="#231F20" d="M757.496,331.904h11.311c1.651,0,2.993-1.344,2.993-2.995v-11.308c0-1.654-1.342-2.998-2.993-2.998
				h-11.311c-1.65,0-2.995,1.344-2.995,2.998v11.308C754.501,330.56,755.846,331.904,757.496,331.904z M757.231,317.601
				c0-0.146,0.122-0.271,0.265-0.271h11.311c0.144,0,0.266,0.125,0.266,0.271v11.308c0,0.146-0.12,0.265-0.266,0.265h-11.311
				c-0.146,0-0.265-0.119-0.265-0.265V317.601z"/>
		</g>
		<g>
			<path fill="#231F20" d="M778.347,331.904h11.308c1.652,0,2.995-1.344,2.995-2.995v-11.308c0-1.654-1.343-2.998-2.995-2.998
				h-11.308c-1.65,0-2.993,1.344-2.993,2.998v11.308C775.354,330.56,776.696,331.904,778.347,331.904z M778.082,317.601
				c0-0.148,0.119-0.271,0.265-0.271h11.308c0.149,0,0.269,0.122,0.269,0.271v11.308c0,0.148-0.117,0.265-0.269,0.265h-11.308
				c-0.147,0-0.265-0.117-0.265-0.265V317.601z"/>
		</g>
		<g>
			<path fill="#231F20" d="M799.2,331.904h11.308c1.654,0,2.998-1.344,2.998-2.995v-11.308c0-1.654-1.344-2.998-2.998-2.998H799.2
				c-1.651,0-2.996,1.344-2.996,2.998v11.308C796.204,330.56,797.549,331.904,799.2,331.904z M798.932,317.601
				c0-0.146,0.123-0.271,0.269-0.271h11.308c0.146,0,0.268,0.125,0.268,0.271v11.308c0,0.146-0.119,0.265-0.268,0.265H799.2
				c-0.148,0-0.269-0.119-0.269-0.265V317.601z"/>
		</g>
		<g>
			<path fill="#231F20" d="M820.051,331.904h11.31c1.652,0,2.993-1.344,2.993-2.995v-11.308c0-1.654-1.341-2.998-2.993-2.998h-11.31
				c-1.652,0-2.993,1.344-2.993,2.998v11.308C817.058,330.56,818.398,331.904,820.051,331.904z M819.785,317.601
				c0-0.148,0.12-0.271,0.266-0.271h11.31c0.144,0,0.266,0.125,0.266,0.271v11.308c0,0.146-0.12,0.265-0.266,0.265h-11.31
				c-0.148,0-0.266-0.117-0.266-0.265V317.601z"/>
		</g>
		<g>
			<path fill="#231F20" d="M840.903,331.904h11.311c1.651,0,2.995-1.344,2.995-2.995v-11.308c0-1.654-1.344-2.998-2.995-2.998
				h-11.311c-1.65,0-2.992,1.344-2.992,2.998v11.308C837.911,330.56,839.253,331.904,840.903,331.904z M840.638,317.601
				c0-0.148,0.12-0.271,0.266-0.271h11.311c0.148,0,0.268,0.122,0.268,0.271v11.308c0,0.146-0.119,0.265-0.268,0.265h-11.311
				c-0.147,0-0.266-0.117-0.266-0.265V317.601z"/>
		</g>
		<g>
			<path fill="#231F20" d="M548.979,352.3h11.308c1.651,0,2.992-1.342,2.992-2.993v-11.313c0-1.651-1.341-2.996-2.992-2.996h-11.308
				c-1.651,0-2.996,1.344-2.996,2.996v11.313C545.983,350.958,547.328,352.3,548.979,352.3z M548.711,337.994
				c0-0.149,0.12-0.271,0.268-0.271h11.308c0.143,0,0.265,0.125,0.265,0.271v11.313c0,0.144-0.123,0.263-0.265,0.263h-11.308
				c-0.148,0-0.268-0.118-0.268-0.263V337.994z"/>
		</g>
		<g>
			<path fill="#231F20" d="M569.829,352.3h11.311c1.648,0,2.99-1.342,2.99-2.993v-11.313c0-1.651-1.341-2.996-2.99-2.996h-11.311
				c-1.653,0-2.998,1.344-2.998,2.996v11.313C566.832,350.958,568.176,352.3,569.829,352.3z M569.559,337.994
				c0-0.146,0.125-0.271,0.27-0.271h11.311c0.146,0,0.262,0.122,0.262,0.271v11.313c0,0.146-0.117,0.263-0.262,0.263h-11.311
				c-0.145,0-0.27-0.12-0.27-0.263V337.994z"/>
		</g>
		<g>
			<path fill="#231F20" d="M590.68,352.3h11.311c1.651,0,2.993-1.342,2.993-2.993v-11.313c0-1.651-1.341-2.996-2.993-2.996H590.68
				c-1.651,0-2.993,1.344-2.993,2.996v11.313C587.687,350.958,589.028,352.3,590.68,352.3z M590.415,337.994
				c0-0.146,0.123-0.271,0.265-0.271h11.311c0.143,0,0.265,0.125,0.265,0.271v11.313c0,0.144-0.122,0.263-0.265,0.263H590.68
				c-0.143,0-0.265-0.12-0.265-0.263V337.994z"/>
		</g>
		<g>
			<path fill="#231F20" d="M611.533,352.3h11.308c1.654,0,2.998-1.342,2.998-2.993v-11.313c0-1.651-1.344-2.996-2.998-2.996h-11.308
				c-1.651,0-2.995,1.344-2.995,2.996v11.313C608.538,350.958,609.882,352.3,611.533,352.3z M611.268,337.994
				c0-0.146,0.122-0.271,0.265-0.271h11.308c0.146,0,0.268,0.125,0.268,0.271v11.313c0,0.144-0.122,0.263-0.268,0.263h-11.308
				c-0.143,0-0.265-0.12-0.265-0.263V337.994z"/>
		</g>
		<g>
			<path fill="#231F20" d="M632.384,352.3h11.31c1.651,0,2.993-1.342,2.993-2.993v-11.313c0-1.651-1.342-2.996-2.993-2.996h-11.31
				c-1.652,0-2.993,1.344-2.993,2.996v11.313C629.391,350.958,630.732,352.3,632.384,352.3z M632.118,337.994
				c0-0.149,0.119-0.271,0.266-0.271h11.31c0.146,0,0.265,0.122,0.265,0.271v11.313c0,0.146-0.12,0.263-0.265,0.263h-11.31
				c-0.146,0-0.266-0.118-0.266-0.263V337.994z"/>
		</g>
		<g>
			<path fill="#231F20" d="M653.236,352.3h11.308c1.651,0,2.996-1.342,2.996-2.993v-11.313c0-1.651-1.344-2.996-2.996-2.996h-11.308
				c-1.65,0-2.995,1.344-2.995,2.996v11.313C650.241,350.958,651.585,352.3,653.236,352.3z M652.971,337.994
				c0-0.149,0.12-0.271,0.265-0.271h11.308c0.149,0,0.269,0.122,0.269,0.271v11.313c0,0.146-0.12,0.263-0.269,0.263h-11.308
				c-0.145,0-0.265-0.118-0.265-0.263V337.994z"/>
		</g>
		<g>
			<path fill="#231F20" d="M674.09,352.3h11.307c1.651,0,2.993-1.342,2.993-2.993v-11.313c0-1.651-1.342-2.996-2.993-2.996H674.09
				c-1.654,0-2.999,1.344-2.999,2.996v11.313C671.091,350.958,672.436,352.3,674.09,352.3z M673.819,337.994
				c0-0.149,0.122-0.271,0.271-0.271h11.307c0.148,0,0.269,0.122,0.269,0.271v11.313c0,0.146-0.12,0.263-0.269,0.263H674.09
				c-0.149,0-0.271-0.118-0.271-0.263V337.994z"/>
		</g>
		<g>
			<path fill="#231F20" d="M694.942,352.3h11.311c1.648,0,2.99-1.342,2.99-2.993v-11.313c0-1.651-1.342-2.996-2.99-2.996h-11.311
				c-1.651,0-2.996,1.344-2.996,2.996v11.313C691.947,350.958,693.292,352.3,694.942,352.3z M694.675,337.994
				c0-0.149,0.12-0.271,0.268-0.271h11.311c0.144,0,0.263,0.125,0.263,0.271v11.313c0,0.144-0.119,0.263-0.263,0.263h-11.311
				c-0.148,0-0.268-0.118-0.268-0.263V337.994z"/>
		</g>
		<g>
			<path fill="#231F20" d="M715.79,352.3h11.311c1.651,0,2.993-1.342,2.993-2.993v-11.313c0-1.651-1.342-2.996-2.993-2.996H715.79
				c-1.651,0-2.993,1.344-2.993,2.996v11.313C712.797,350.958,714.139,352.3,715.79,352.3z M715.522,337.994
				c0-0.149,0.12-0.271,0.268-0.271h11.311c0.144,0,0.266,0.125,0.266,0.271v11.313c0,0.144-0.122,0.263-0.266,0.263H715.79
				c-0.147,0-0.268-0.118-0.268-0.263V337.994z"/>
		</g>
		<g>
			<path fill="#231F20" d="M736.646,352.3h11.305c1.651,0,2.996-1.342,2.996-2.993v-11.313c0-1.651-1.345-2.996-2.996-2.996h-11.305
				c-1.651,0-2.996,1.344-2.996,2.996v11.313C733.65,350.958,734.995,352.3,736.646,352.3z M736.378,337.994
				c0-0.149,0.12-0.271,0.269-0.271h11.305c0.148,0,0.271,0.122,0.271,0.271v11.313c0,0.146-0.122,0.263-0.271,0.263h-11.305
				c-0.148,0-0.269-0.118-0.269-0.263V337.994z"/>
		</g>
		<g>
			<path fill="#231F20" d="M799.2,352.3h11.308c1.654,0,2.998-1.342,2.998-2.993v-11.313c0-1.651-1.344-2.996-2.998-2.996H799.2
				c-1.651,0-2.996,1.344-2.996,2.996v11.313C796.204,350.958,797.549,352.3,799.2,352.3z M798.932,337.994
				c0-0.146,0.123-0.271,0.269-0.271h11.308c0.146,0,0.268,0.125,0.268,0.271v11.313c0,0.144-0.122,0.263-0.268,0.263H799.2
				c-0.146,0-0.269-0.12-0.269-0.263V337.994z"/>
		</g>
		<g>
			<path fill="#231F20" d="M820.051,352.3h11.31c1.652,0,2.993-1.342,2.993-2.993v-11.313c0-1.651-1.341-2.996-2.993-2.996h-11.31
				c-1.652,0-2.993,1.344-2.993,2.996v11.313C817.058,350.958,818.398,352.3,820.051,352.3z M819.785,337.994
				c0-0.149,0.12-0.271,0.266-0.271h11.31c0.144,0,0.266,0.125,0.266,0.271v11.313c0,0.144-0.122,0.263-0.266,0.263h-11.31
				c-0.146,0-0.266-0.118-0.266-0.263V337.994z"/>
		</g>
		<g>
			<path fill="#231F20" d="M840.903,352.3h11.311c1.651,0,2.995-1.342,2.995-2.993v-11.313c0-1.651-1.344-2.996-2.995-2.996h-11.311
				c-1.65,0-2.992,1.344-2.992,2.996v11.313C837.911,350.958,839.253,352.3,840.903,352.3z M840.638,337.994
				c0-0.149,0.12-0.271,0.266-0.271h11.311c0.148,0,0.268,0.122,0.268,0.271v11.313c0,0.146-0.119,0.263-0.268,0.263h-11.311
				c-0.146,0-0.266-0.118-0.266-0.263V337.994z"/>
		</g>
		<g>
			<path fill="#231F20" d="M548.979,372.695h11.308c1.651,0,2.992-1.344,2.992-2.998v-11.311c0-1.651-1.341-2.992-2.992-2.992
				h-11.308c-1.651,0-2.996,1.341-2.996,2.992v11.311C545.983,371.351,547.328,372.695,548.979,372.695z M548.711,358.386
				c0-0.145,0.12-0.265,0.268-0.265h11.308c0.146,0,0.265,0.12,0.265,0.265v11.311c0,0.146-0.12,0.265-0.265,0.265h-11.308
				c-0.148,0-0.268-0.12-0.268-0.265V358.386z"/>
		</g>
		<g>
			<path fill="#231F20" d="M569.829,372.695h11.311c1.648,0,2.99-1.344,2.99-2.998v-11.311c0-1.651-1.341-2.992-2.99-2.992h-11.311
				c-1.653,0-2.998,1.341-2.998,2.992v11.311C566.832,371.351,568.176,372.695,569.829,372.695z M569.559,358.386
				c0-0.143,0.125-0.265,0.27-0.265h11.311c0.146,0,0.262,0.12,0.262,0.265v11.311c0,0.146-0.117,0.265-0.262,0.265h-11.311
				c-0.148,0-0.27-0.12-0.27-0.265V358.386z"/>
		</g>
		<g>
			<path fill="#231F20" d="M590.68,372.695h11.311c1.651,0,2.993-1.344,2.993-2.998v-11.311c0-1.651-1.341-2.992-2.993-2.992H590.68
				c-1.651,0-2.993,1.341-2.993,2.992v11.311C587.687,371.351,589.028,372.695,590.68,372.695z M590.415,358.386
				c0-0.145,0.12-0.265,0.265-0.265h11.311c0.146,0,0.265,0.12,0.265,0.265v11.311c0,0.146-0.12,0.265-0.265,0.265H590.68
				c-0.146,0-0.265-0.12-0.265-0.265V358.386z"/>
		</g>
		<g>
			<path fill="#231F20" d="M611.533,372.695h11.308c1.654,0,2.998-1.344,2.998-2.998v-11.311c0-1.651-1.344-2.992-2.998-2.992
				h-11.308c-1.651,0-2.995,1.341-2.995,2.992v11.311C608.538,371.351,609.882,372.695,611.533,372.695z M611.268,358.386
				c0-0.145,0.12-0.265,0.265-0.265h11.308c0.146,0,0.268,0.122,0.268,0.265v11.311c0,0.146-0.12,0.265-0.268,0.265h-11.308
				c-0.146,0-0.265-0.12-0.265-0.265V358.386z"/>
		</g>
		<g>
			<path fill="#231F20" d="M632.384,372.695h11.31c1.651,0,2.993-1.344,2.993-2.998v-11.311c0-1.651-1.342-2.992-2.993-2.992h-11.31
				c-1.652,0-2.993,1.341-2.993,2.992v11.311C629.391,371.351,630.732,372.695,632.384,372.695z M632.118,358.386
				c0-0.145,0.119-0.265,0.266-0.265h11.31c0.146,0,0.265,0.12,0.265,0.265v11.311c0,0.148-0.117,0.265-0.265,0.265h-11.31
				c-0.149,0-0.266-0.117-0.266-0.265V358.386z"/>
		</g>
		<g>
			<path fill="#231F20" d="M653.236,372.695h11.308c1.651,0,2.996-1.344,2.996-2.998v-11.311c0-1.651-1.344-2.992-2.996-2.992
				h-11.308c-1.65,0-2.995,1.341-2.995,2.992v11.311C650.241,371.351,651.585,372.695,653.236,372.695z M652.971,358.386
				c0-0.145,0.12-0.265,0.265-0.265h11.308c0.149,0,0.269,0.12,0.269,0.265v11.311c0,0.146-0.12,0.265-0.269,0.265h-11.308
				c-0.148,0-0.265-0.117-0.265-0.265V358.386z"/>
		</g>
		<g>
			<path fill="#231F20" d="M674.09,372.695h11.307c1.651,0,2.993-1.344,2.993-2.998v-11.311c0-1.651-1.342-2.992-2.993-2.992H674.09
				c-1.654,0-2.999,1.341-2.999,2.992v11.311C671.091,371.351,672.436,372.695,674.09,372.695z M673.819,358.386
				c0-0.145,0.122-0.265,0.271-0.265h11.307c0.148,0,0.269,0.12,0.269,0.265v11.311c0,0.146-0.12,0.265-0.269,0.265H674.09
				c-0.149,0-0.271-0.12-0.271-0.265V358.386z"/>
		</g>
		<g>
			<path fill="#231F20" d="M694.942,372.695h11.311c1.648,0,2.99-1.344,2.99-2.998v-11.311c0-1.651-1.342-2.992-2.99-2.992h-11.311
				c-1.651,0-2.996,1.341-2.996,2.992v11.311C691.947,371.351,693.292,372.695,694.942,372.695z M694.675,358.386
				c0-0.145,0.12-0.265,0.268-0.265h11.311c0.144,0,0.263,0.122,0.263,0.265v11.311c0,0.146-0.117,0.265-0.263,0.265h-11.311
				c-0.148,0-0.268-0.12-0.268-0.265V358.386z"/>
		</g>
		<g>
			<path fill="#231F20" d="M715.79,372.695h11.311c1.651,0,2.993-1.344,2.993-2.998v-11.311c0-1.651-1.342-2.992-2.993-2.992H715.79
				c-1.651,0-2.993,1.341-2.993,2.992v11.311C712.797,371.351,714.139,372.695,715.79,372.695z M715.522,358.386
				c0-0.145,0.12-0.265,0.268-0.265h11.311c0.146,0,0.266,0.12,0.266,0.265v11.311c0,0.146-0.12,0.265-0.266,0.265H715.79
				c-0.147,0-0.268-0.12-0.268-0.265V358.386z"/>
		</g>
		<g>
			<path fill="#231F20" d="M736.646,372.695h11.305c1.651,0,2.996-1.344,2.996-2.998v-11.311c0-1.651-1.345-2.992-2.996-2.992
				h-11.305c-1.651,0-2.996,1.341-2.996,2.992v11.311C733.65,371.351,734.995,372.695,736.646,372.695z M736.378,358.386
				c0-0.145,0.12-0.265,0.269-0.265h11.305c0.148,0,0.271,0.12,0.271,0.265v11.311c0,0.146-0.122,0.265-0.271,0.265h-11.305
				c-0.148,0-0.269-0.12-0.269-0.265V358.386z"/>
		</g>
		<g>
			<path fill="#231F20" d="M757.496,372.695h11.311c1.651,0,2.993-1.344,2.993-2.998v-11.311c0-1.651-1.342-2.992-2.993-2.992
				h-11.311c-1.65,0-2.995,1.341-2.995,2.992v11.311C754.501,371.351,755.846,372.695,757.496,372.695z M757.231,358.386
				c0-0.145,0.119-0.265,0.265-0.265h11.311c0.146,0,0.266,0.12,0.266,0.265v11.311c0,0.146-0.12,0.265-0.266,0.265h-11.311
				c-0.146,0-0.265-0.12-0.265-0.265V358.386z"/>
		</g>
		<g>
			<path fill="#231F20" d="M757.496,352.3h17.857v17.397c0,1.654,1.343,2.998,2.993,2.998h11.308c1.652,0,2.995-1.344,2.995-2.998
				v-31.703c0-1.651-1.343-2.996-2.995-2.996h-32.158c-1.65,0-2.995,1.344-2.995,2.996v11.313
				C754.501,350.958,755.846,352.3,757.496,352.3z M757.231,337.994c0-0.146,0.122-0.271,0.265-0.271h32.158
				c0.149,0,0.269,0.122,0.269,0.271v31.703c0,0.148-0.117,0.265-0.269,0.265h-11.308c-0.147,0-0.265-0.117-0.265-0.265v-18.763
				c0-0.751-0.613-1.365-1.365-1.365h-19.221c-0.143,0-0.265-0.12-0.265-0.263V337.994z"/>
		</g>
		<g>
			<path fill="#231F20" d="M799.2,372.695h11.308c1.654,0,2.998-1.344,2.998-2.998v-11.311c0-1.651-1.344-2.992-2.998-2.992H799.2
				c-1.651,0-2.996,1.341-2.996,2.992v11.311C796.204,371.351,797.549,372.695,799.2,372.695z M798.932,358.386
				c0-0.143,0.123-0.265,0.269-0.265h11.308c0.146,0,0.268,0.122,0.268,0.265v11.311c0,0.146-0.119,0.265-0.268,0.265H799.2
				c-0.148,0-0.269-0.12-0.269-0.265V358.386z"/>
		</g>
		<g>
			<path fill="#231F20" d="M820.051,372.695h11.31c1.652,0,2.993-1.344,2.993-2.998v-11.311c0-1.651-1.341-2.992-2.993-2.992h-11.31
				c-1.652,0-2.993,1.341-2.993,2.992v11.311C817.058,371.351,818.398,372.695,820.051,372.695z M819.785,358.386
				c0-0.145,0.12-0.265,0.266-0.265h11.31c0.146,0,0.266,0.12,0.266,0.265v11.311c0,0.146-0.12,0.265-0.266,0.265h-11.31
				c-0.148,0-0.266-0.117-0.266-0.265V358.386z"/>
		</g>
		<g>
			<path fill="#231F20" d="M840.903,372.695h11.311c1.651,0,2.995-1.344,2.995-2.998v-11.311c0-1.651-1.344-2.992-2.995-2.992
				h-11.311c-1.65,0-2.992,1.341-2.992,2.992v11.311C837.911,371.351,839.253,372.695,840.903,372.695z M840.638,358.386
				c0-0.145,0.12-0.265,0.266-0.265h11.311c0.148,0,0.268,0.12,0.268,0.265v11.311c0,0.146-0.119,0.265-0.268,0.265h-11.311
				c-0.147,0-0.266-0.117-0.266-0.265V358.386z"/>
		</g>
		<g>
			<path fill="#231F20" d="M548.979,393.088h11.308c1.651,0,2.992-1.342,2.992-2.993v-11.313c0-1.651-1.341-2.996-2.992-2.996
				h-11.308c-1.651,0-2.996,1.344-2.996,2.996v11.313C545.983,391.746,547.328,393.088,548.979,393.088z M548.711,378.782
				c0-0.146,0.12-0.266,0.268-0.266h11.308c0.146,0,0.265,0.12,0.265,0.266v11.313c0,0.146-0.12,0.265-0.265,0.265h-11.308
				c-0.148,0-0.268-0.119-0.268-0.265V378.782z"/>
		</g>
		<g>
			<path fill="#231F20" d="M569.829,393.088h11.311c1.648,0,2.99-1.342,2.99-2.993v-11.313c0-1.651-1.341-2.996-2.99-2.996h-11.311
				c-1.653,0-2.998,1.344-2.998,2.996v11.313C566.832,391.746,568.176,393.088,569.829,393.088z M569.559,378.782
				c0-0.146,0.122-0.266,0.27-0.266h11.311c0.146,0,0.262,0.12,0.262,0.266v11.313c0,0.146-0.117,0.265-0.262,0.265h-11.311
				c-0.145,0-0.27-0.122-0.27-0.265V378.782z"/>
		</g>
		<g>
			<path fill="#231F20" d="M590.68,393.088h11.311c1.651,0,2.993-1.342,2.993-2.993v-11.313c0-1.651-1.341-2.996-2.993-2.996H590.68
				c-1.651,0-2.993,1.344-2.993,2.996v11.313C587.687,391.746,589.028,393.088,590.68,393.088z M590.415,378.782
				c0-0.146,0.12-0.266,0.265-0.266h11.311c0.146,0,0.265,0.12,0.265,0.266v11.313c0,0.146-0.12,0.265-0.265,0.265H590.68
				c-0.146,0-0.265-0.119-0.265-0.265V378.782z"/>
		</g>
		<g>
			<path fill="#231F20" d="M611.533,393.088h11.308c1.654,0,2.998-1.342,2.998-2.993v-11.313c0-1.651-1.344-2.996-2.998-2.996
				h-11.308c-1.651,0-2.995,1.344-2.995,2.996v11.313C608.538,391.746,609.882,393.088,611.533,393.088z M611.268,378.782
				c0-0.146,0.12-0.266,0.265-0.266h11.308c0.148,0,0.268,0.12,0.268,0.266v11.313c0,0.143-0.122,0.265-0.268,0.265h-11.308
				c-0.146,0-0.265-0.119-0.265-0.265V378.782z"/>
		</g>
		<g>
			<path fill="#231F20" d="M632.384,393.088h11.31c1.651,0,2.993-1.342,2.993-2.993v-11.313c0-1.651-1.342-2.996-2.993-2.996h-11.31
				c-1.652,0-2.993,1.344-2.993,2.996v11.313C629.391,391.746,630.732,393.088,632.384,393.088z M632.118,378.782
				c0-0.148,0.117-0.266,0.266-0.266h11.31c0.148,0,0.265,0.117,0.265,0.266v11.313c0,0.146-0.12,0.265-0.265,0.265h-11.31
				c-0.146,0-0.266-0.119-0.266-0.265V378.782z"/>
		</g>
		<g>
			<path fill="#231F20" d="M653.236,393.088h11.308c1.651,0,2.996-1.342,2.996-2.993v-11.313c0-1.651-1.344-2.996-2.996-2.996
				h-11.308c-1.65,0-2.995,1.344-2.995,2.996v11.313C650.241,391.746,651.585,393.088,653.236,393.088z M652.971,378.782
				c0-0.148,0.117-0.266,0.265-0.266h11.308c0.149,0,0.269,0.12,0.269,0.266v11.313c0,0.146-0.12,0.265-0.269,0.265h-11.308
				c-0.145,0-0.265-0.119-0.265-0.265V378.782z"/>
		</g>
		<g>
			<path fill="#231F20" d="M674.09,393.088h11.307c1.651,0,2.993-1.342,2.993-2.993v-11.313c0-1.651-1.342-2.996-2.993-2.996H674.09
				c-1.654,0-2.999,1.344-2.999,2.996v11.313C671.091,391.746,672.436,393.088,674.09,393.088z M673.819,378.782
				c0-0.146,0.122-0.266,0.271-0.266h11.307c0.148,0,0.269,0.12,0.269,0.266v11.313c0,0.146-0.12,0.265-0.269,0.265H674.09
				c-0.149,0-0.271-0.119-0.271-0.265V378.782z"/>
		</g>
		<g>
			<path fill="#231F20" d="M694.942,393.088h11.311c1.648,0,2.99-1.342,2.99-2.993v-11.313c0-1.651-1.342-2.996-2.99-2.996h-11.311
				c-1.651,0-2.996,1.344-2.996,2.996v11.313C691.947,391.746,693.292,393.088,694.942,393.088z M694.675,378.782
				c0-0.146,0.12-0.266,0.268-0.266h11.311c0.146,0,0.263,0.12,0.263,0.266v11.313c0,0.143-0.119,0.265-0.263,0.265h-11.311
				c-0.148,0-0.268-0.119-0.268-0.265V378.782z"/>
		</g>
		<g>
			<path fill="#231F20" d="M715.79,393.088h11.311c1.651,0,2.993-1.342,2.993-2.993v-11.313c0-1.651-1.342-2.996-2.993-2.996H715.79
				c-1.651,0-2.993,1.344-2.993,2.996v11.313C712.797,391.746,714.139,393.088,715.79,393.088z M715.522,378.782
				c0-0.146,0.12-0.266,0.268-0.266h11.311c0.146,0,0.266,0.12,0.266,0.266v11.313c0,0.146-0.12,0.265-0.266,0.265H715.79
				c-0.147,0-0.268-0.119-0.268-0.265V378.782z"/>
		</g>
		<g>
			<path fill="#231F20" d="M736.646,393.088h11.305c1.651,0,2.996-1.342,2.996-2.993v-11.313c0-1.651-1.345-2.996-2.996-2.996
				h-11.305c-1.651,0-2.996,1.344-2.996,2.996v11.313C733.65,391.746,734.995,393.088,736.646,393.088z M736.378,378.782
				c0-0.146,0.12-0.266,0.269-0.266h11.305c0.151,0,0.271,0.117,0.271,0.266v11.313c0,0.146-0.122,0.265-0.271,0.265h-11.305
				c-0.148,0-0.269-0.119-0.269-0.265V378.782z"/>
		</g>
		<g>
			<path fill="#231F20" d="M789.654,375.787h-11.308c-1.65,0-2.993,1.344-2.993,2.996v11.313c0,1.651,1.343,2.993,2.993,2.993
				h11.308c1.652,0,2.995-1.342,2.995-2.993v-11.313C792.649,377.131,791.307,375.787,789.654,375.787z M789.923,390.095
				c0,0.146-0.119,0.265-0.269,0.265h-11.308c-0.146,0-0.265-0.119-0.265-0.265v-11.313c0-0.148,0.117-0.266,0.265-0.266h11.308
				c0.151,0,0.269,0.117,0.269,0.266V390.095z"/>
		</g>
		<g>
			<path fill="#231F20" d="M820.051,393.088h11.31c1.652,0,2.993-1.342,2.993-2.993v-11.313c0-1.651-1.341-2.996-2.993-2.996h-11.31
				c-1.652,0-2.993,1.344-2.993,2.996v11.313C817.058,391.746,818.398,393.088,820.051,393.088z M819.785,378.782
				c0-0.148,0.117-0.266,0.266-0.266h11.31c0.146,0,0.266,0.12,0.266,0.266v11.313c0,0.146-0.12,0.265-0.266,0.265h-11.31
				c-0.146,0-0.266-0.119-0.266-0.265V378.782z"/>
		</g>
		<g>
			<path fill="#231F20" d="M840.903,393.088h11.311c1.651,0,2.995-1.342,2.995-2.993v-11.313c0-1.651-1.344-2.996-2.995-2.996
				h-11.311c-1.65,0-2.992,1.344-2.992,2.996v11.313C837.911,391.746,839.253,393.088,840.903,393.088z M840.638,378.782
				c0-0.148,0.118-0.266,0.266-0.266h11.311c0.148,0,0.268,0.12,0.268,0.266v11.313c0,0.146-0.119,0.265-0.268,0.265h-11.311
				c-0.146,0-0.266-0.119-0.266-0.265V378.782z"/>
		</g>
		<g>
			<path fill="#231F20" d="M548.979,413.478h11.308c1.651,0,2.992-1.342,2.992-2.99v-11.311c0-1.651-1.341-2.992-2.992-2.992
				h-11.308c-1.651,0-2.996,1.341-2.996,2.992v11.311C545.983,412.136,547.328,413.478,548.979,413.478z M548.711,399.177
				c0-0.146,0.12-0.265,0.268-0.265h11.308c0.146,0,0.265,0.12,0.265,0.265v11.311c0,0.146-0.12,0.263-0.265,0.263h-11.308
				c-0.151,0-0.268-0.115-0.268-0.263V399.177z"/>
		</g>
		<g>
			<path fill="#231F20" d="M569.829,413.478h32.161c1.651,0,2.993-1.342,2.993-2.99v-11.311c0-1.651-1.341-2.992-2.993-2.992
				h-32.161c-1.653,0-2.998,1.341-2.998,2.992v11.311C566.832,412.136,568.176,413.478,569.829,413.478z M569.559,399.177
				c0-0.143,0.125-0.265,0.27-0.265h32.161c0.146,0,0.265,0.12,0.265,0.265v11.311c0,0.146-0.12,0.263-0.265,0.263h-32.161
				c-0.148,0-0.27-0.118-0.27-0.263V399.177z"/>
		</g>
		<g>
			<path fill="#231F20" d="M611.533,413.478h115.568c1.651,0,2.993-1.342,2.993-2.99v-11.311c0-1.651-1.342-2.992-2.993-2.992
				H611.533c-1.651,0-2.995,1.341-2.995,2.992v11.311C608.538,412.136,609.882,413.478,611.533,413.478z M611.268,399.177
				c0-0.146,0.12-0.265,0.265-0.265h115.568c0.146,0,0.266,0.12,0.266,0.265v11.311c0,0.146-0.12,0.263-0.266,0.263H611.533
				c-0.146,0-0.265-0.118-0.265-0.263V399.177z"/>
		</g>
		<g>
			<path fill="#231F20" d="M736.646,413.478h32.16c1.651,0,2.993-1.342,2.993-2.99v-11.311c0-1.651-1.342-2.992-2.993-2.992h-32.16
				c-1.651,0-2.996,1.341-2.996,2.992v11.311C733.65,412.136,734.995,413.478,736.646,413.478z M736.378,399.177
				c0-0.146,0.12-0.265,0.269-0.265h32.16c0.146,0,0.266,0.12,0.266,0.265v11.311c0,0.146-0.12,0.263-0.266,0.263h-32.16
				c-0.151,0-0.269-0.115-0.269-0.263V399.177z"/>
		</g>
		<g>
			<path fill="#231F20" d="M789.654,396.185h-11.308c-1.65,0-2.993,1.341-2.993,2.992v11.311c0,1.648,1.343,2.99,2.993,2.99h11.308
				c1.652,0,2.995-1.342,2.995-2.99v-11.311C792.649,397.526,791.307,396.185,789.654,396.185z M789.923,410.488
				c0,0.148-0.117,0.263-0.269,0.263h-11.308c-0.147,0-0.265-0.115-0.265-0.263v-11.311c0-0.146,0.119-0.265,0.265-0.265h11.308
				c0.149,0,0.269,0.12,0.269,0.265V410.488z"/>
		</g>
		<g>
			<path fill="#231F20" d="M799.2,413.478h11.308c1.654,0,2.998-1.342,2.998-2.99v-11.311c0-1.651-1.344-2.992-2.998-2.992H799.2
				c-1.651,0-2.996,1.341-2.996,2.992v11.311C796.204,412.136,797.549,413.478,799.2,413.478z M798.932,399.177
				c0-0.143,0.123-0.265,0.269-0.265h11.308c0.146,0,0.268,0.123,0.268,0.265v11.311c0,0.146-0.119,0.263-0.268,0.263H799.2
				c-0.148,0-0.269-0.118-0.269-0.263V399.177z"/>
		</g>
		<g>
			<path fill="#231F20" d="M820.051,413.478h11.31c1.652,0,2.993-1.342,2.993-2.99v-11.311c0-1.651-1.341-2.992-2.993-2.992h-11.31
				c-1.652,0-2.993,1.341-2.993,2.992v11.311C817.058,412.136,818.398,413.478,820.051,413.478z M819.785,399.177
				c0-0.146,0.12-0.265,0.266-0.265h11.31c0.146,0,0.266,0.12,0.266,0.265v11.311c0,0.146-0.12,0.263-0.266,0.263h-11.31
				c-0.148,0-0.266-0.115-0.266-0.263V399.177z"/>
		</g>
		<g>
			<path fill="#231F20" d="M840.903,413.478h11.311c1.651,0,2.995-1.342,2.995-2.99v-11.311c0-1.651-1.344-2.992-2.995-2.992
				h-11.311c-1.65,0-2.992,1.341-2.992,2.992v11.311C837.911,412.136,839.253,413.478,840.903,413.478z M840.638,399.177
				c0-0.146,0.12-0.265,0.266-0.265h11.311c0.148,0,0.268,0.12,0.268,0.265v11.311c0,0.148-0.116,0.263-0.268,0.263h-11.311
				c-0.147,0-0.266-0.115-0.266-0.263V399.177z"/>
		</g>
		<g>
			<path fill="#231F20" d="M761.09,428.437H638.913c-0.751,0-1.363,0.614-1.363,1.365v71.532c0,0.751,0.612,1.365,1.363,1.365
				H761.09c0.752,0,1.365-0.614,1.365-1.365v-71.532C762.455,429.051,761.842,428.437,761.09,428.437z M759.725,499.966h-119.45
				v-68.801h119.45V499.966z"/>
		</g>
	</g>
	<g>
		<path fill="#FFFFFF" d="M224.222,304.517c-0.34,0-0.681-0.129-0.941-0.39c-0.52-0.52-0.52-1.362,0-1.882l20.9-20.897
			c0.52-0.521,1.362-0.521,1.882,0c0.52,0.52,0.52,1.362,0,1.882l-20.9,20.897C224.903,304.387,224.563,304.517,224.222,304.517z"/>
	</g>
	<g>
		<path fill="#FFFFFF" d="M222.01,353.524c-0.341,0-0.682-0.13-0.941-0.39c-0.521-0.52-0.521-1.362,0-1.883l52.853-52.855
			c0.52-0.52,1.362-0.52,1.882,0c0.52,0.52,0.52,1.362,0,1.882l-52.853,52.855C222.69,353.395,222.35,353.524,222.01,353.524z"/>
	</g>
	<g>
		<path fill="#FFFFFF" d="M234.672,393.504c-0.353,0-0.707-0.14-0.969-0.418c-0.504-0.536-0.479-1.378,0.057-1.882l22.886-21.532
			c0.533-0.505,1.375-0.481,1.882,0.057c0.505,0.535,0.479,1.378-0.057,1.882l-22.886,21.532
			C235.328,393.384,235,393.504,234.672,393.504z"/>
	</g>
	<g>
		<path fill="#FFFFFF" d="M145.041,652.402c-0.341,0-0.681-0.131-0.941-0.391c-0.52-0.52-0.52-1.362,0-1.883l43.721-43.721
			c0.52-0.521,1.362-0.521,1.883,0c0.52,0.52,0.52,1.361,0,1.882l-43.721,43.722C145.722,652.271,145.381,652.402,145.041,652.402z"
			/>
	</g>
	<g>
		<path fill="#FFFFFF" d="M157.844,742.993c-0.341,0-0.682-0.131-0.941-0.391c-0.52-0.521-0.52-1.361,0-1.882l90.591-90.592
			c0.521-0.52,1.363-0.52,1.883,0c0.52,0.521,0.52,1.363,0,1.883l-90.591,90.591C158.525,742.862,158.184,742.993,157.844,742.993z"
			/>
	</g>
	<g>
		<path fill="#FFFFFF" d="M227.041,755.442c-0.341,0-0.681-0.13-0.941-0.39c-0.52-0.521-0.52-1.363,0-1.883l30.518-30.521
			c0.52-0.52,1.362-0.52,1.882,0c0.521,0.52,0.521,1.362,0,1.883l-30.518,30.521C227.722,755.313,227.381,755.442,227.041,755.442z"
			/>
	</g>
	<g>
		<path fill="#FFFFFF" d="M1092.557,307.694c-0.34,0-0.681-0.13-0.941-0.39c-0.52-0.521-0.52-1.363,0-1.883l52.653-52.653
			c0.521-0.52,1.363-0.52,1.882,0c0.521,0.52,0.521,1.362,0,1.883l-52.651,52.653
			C1093.238,307.564,1092.897,307.694,1092.557,307.694z"/>
	</g>
	<g>
		<path fill="#FFFFFF" d="M1105.578,374.851c-0.34,0-0.681-0.13-0.94-0.39c-0.521-0.521-0.521-1.363,0-1.883l99.84-99.84
			c0.52-0.52,1.361-0.52,1.882,0c0.521,0.52,0.521,1.362,0,1.883l-99.84,99.84C1106.26,374.72,1105.92,374.851,1105.578,374.851z"/>
	</g>
	<g>
		<path fill="#FFFFFF" d="M1146.017,401.05c-0.341,0-0.683-0.13-0.942-0.39c-0.52-0.521-0.52-1.363,0-1.883l47.422-47.418
			c0.521-0.52,1.361-0.52,1.882,0s0.521,1.363,0,1.882l-47.421,47.419C1146.697,400.919,1146.356,401.05,1146.017,401.05z"/>
	</g>
	<g>
		<path fill="#FFFFFF" d="M571.075,186.06c-0.34,0-0.681-0.13-0.941-0.39c-0.521-0.52-0.521-1.362,0-1.882l81.896-81.897
			c0.52-0.52,1.362-0.52,1.883,0c0.52,0.521,0.52,1.363,0,1.883l-81.897,81.896C571.756,185.93,571.415,186.06,571.075,186.06z"/>
	</g>
	<g>
		<path fill="#FFFFFF" d="M602.635,226.489c-0.34,0-0.682-0.129-0.941-0.39c-0.521-0.52-0.521-1.362,0-1.882L724.02,101.891
			c0.52-0.52,1.362-0.52,1.883,0c0.52,0.521,0.52,1.363,0,1.883L603.576,226.1C603.316,226.36,602.976,226.489,602.635,226.489z"/>
	</g>
	<g>
		<path fill="#FFFFFF" d="M699.669,197.979c-0.34,0-0.681-0.13-0.941-0.39c-0.52-0.52-0.52-1.362,0-1.882l48.552-48.552
			c0.521-0.521,1.362-0.521,1.883,0c0.521,0.52,0.521,1.362,0,1.882l-48.552,48.552C700.351,197.849,700.01,197.979,699.669,197.979
			z"/>
	</g>
	<g>
		<path fill="#FFFFFF" d="M755.855,217.277c-0.341,0-0.681-0.13-0.941-0.39c-0.52-0.52-0.52-1.362,0-1.882l78.498-78.5
			c0.521-0.52,1.363-0.52,1.883,0c0.52,0.52,0.52,1.362,0,1.883l-78.498,78.5C756.537,217.147,756.196,217.277,755.855,217.277z"/>
	</g>
	<g>
		<g>
			<path fill="#FFE8A0" d="M339.169,426.897l-0.231-0.278c-1.508-1.81-3.383-4.059-4.03-5.133c-1.136-1.89-1.669-3.164-1.674-3.174
				l-0.023-0.12l-0.268-13.875c0.596-6.381-3.905-11.422-5.302-12.816l-0.249-0.247l-10.973-1.053l-0.086-0.083l-29.646-29.647
				l-8.526,8.523l-0.237-0.234l-6.094-6.095c-1.119-1.388-2.322-4.719,0.767-7.811c1.307-1.305,2.766-1.968,4.339-1.968
				c1.352,0,2.392,0.494,2.996,0.871c-1.107-1.001-2.515-1.565-4.022-1.565c-1.615,0-3.131,0.626-4.267,1.765
				c-1.139,1.139-1.768,2.652-1.768,4.264c0,1.612,0.629,3.125,1.765,4.262l23.16,23.16l-1.685,1.685l-0.236-0.237
				c-1.137-1.139-2.652-1.765-4.27-1.765c-1.612,0-3.125,0.626-4.259,1.76c-1.142,1.139-1.768,2.655-1.768,4.269
				c0.002,1.618,0.629,3.134,1.768,4.27l1.614,1.617l-1.682,1.683l-0.237-0.234c-1.136-1.139-2.652-1.766-4.264-1.766
				s-3.128,0.624-4.267,1.763c-1.136,1.136-1.763,2.65-1.763,4.265c0,1.614,0.626,3.128,1.765,4.264l2.233,2.233l-1.682,1.682
				l-0.237-0.234c-1.136-1.139-2.652-1.769-4.267-1.769c-1.612,0-3.128,0.63-4.264,1.769c-2.353,2.351-2.353,6.18,0,8.536
				l24.673,24.667c3.248,3.25,7.915,3.733,10.408,3.733c1.474,0,2.426-0.156,2.434-0.158l0.611-0.099l6.532,6.529L339.169,426.897z"
				/>
		</g>
		<g>
			<path fill="#DBC68A" d="M276.964,355.253c-0.929,0-1.833,0.432-2.684,1.284c-2.212,2.21-0.944,4.181-0.665,4.556l4.545,4.54
				l5.215-5.216l-4.542-4.55C278.781,355.828,278.032,355.253,276.964,355.253z"/>
		</g>
		<g>
			
				<rect x="325.81" y="420.052" transform="matrix(0.7071 0.7071 -0.7071 0.7071 411.8812 -103.1895)" fill="#FFFFFF" width="9.37" height="51.024"/>
		</g>
		<g>
			<path fill="#FFE8A0" d="M272.972,688.638c-2.023-0.508-3.284-1.005-3.422-1.059l-0.109-0.071l-10-9.619
				c-4.09-4.936-10.84-5.318-12.811-5.318c-0.132,0-0.25,0.004-0.351,0.006l-8.502,7.013H195.73l-0.002,12.057l-8.952,0.003
				l-0.063-0.003c-1.708-0.188-4.915-1.692-4.917-6.062c0-3.996,2.691-5.582,4.478-5.972c-3.211,0.133-5.788,2.772-5.788,6.014
				c0,1.609,0.624,3.12,1.763,4.262c1.139,1.14,2.652,1.766,4.261,1.766h32.757v2.382h-0.333c-3.329,0-6.038,2.704-6.038,6.029
				c0,1.61,0.626,3.126,1.771,4.267c1.142,1.143,2.657,1.771,4.267,1.771h2.285v2.379h-0.332c-3.326,0-6.033,2.706-6.033,6.032
				s2.707,6.032,6.033,6.032l3.156-0.002v2.379h-0.333c-3.326,0-6.033,2.706-6.033,6.032c0,3.327,2.707,6.037,6.035,6.037h34.891
				c6.896,0,11.563-6.49,11.61-6.555l0.359-0.502l9.238-0.002v-38.482l-0.361-0.037
				C277.104,689.202,274.181,688.936,272.972,688.638z"/>
		</g>
		<g>
			<polygon fill="#FF6864" points="311.956,474.493 352.617,515.154 444.813,607.349 491.88,560.281 399.685,468.086 
				359.023,427.425 			"/>
		</g>
		<g>
			<polygon fill="#FF6864" points="426.913,742.415 426.913,675.853 351.728,675.853 294.223,675.853 294.223,742.415 
				351.728,742.415 			"/>
		</g>
		<g>
			<path fill="#DBC68A" d="M184.175,685.584c0,3.125,2.291,3.62,2.751,3.688l6.425-0.003v-7.377l-6.407-0.004
				C186.585,681.932,184.175,682.357,184.175,685.584z"/>
		</g>
		<g>
			<polygon fill="#FFFFFF" points="282.189,729.979 282.192,734.295 291.561,734.295 291.561,683.268 282.192,683.271 			"/>
		</g>
		<g>
			<rect x="1127.193" y="463.325" fill="#FFFFFF" width="51.025" height="9.371"/>
		</g>
		<g>
			<path fill="#FF6864" d="M1119.103,532.86v112.373c0,16.882-13.736,30.619-30.62,30.619H973.081v66.563h115.401
				c53.586,0,97.184-43.596,97.184-97.182V532.86v-57.502h-66.563V532.86z"/>
		</g>
		<g>
			<path fill="#DBC68A" d="M1133.194,368.012c-0.094-0.595-0.649-2.704-3.687-2.704c-3.284,0-3.666,2.501-3.7,2.788l0.01,6.388
				h7.377V368.012z"/>
		</g>
		<g>
			<path fill="#FFE8A0" d="M1132.56,454.105c0.302,1.208,0.568,4.129,0.78,6.477l0.034,0.361h38.485v-9.233l0.495-0.362
				c0.073-0.049,6.562-4.778,6.562-11.612v-34.891c0-3.329-2.708-6.035-6.035-6.035c-3.326,0-6.033,2.706-6.033,6.035v0.333h-2.378
				v-3.159c0-3.326-2.708-6.032-6.032-6.032c-3.326,0-6.03,2.707-6.03,6.032v0.333h-2.379v-2.286c0-3.328-2.71-6.038-6.038-6.038
				c-3.325,0-6.029,2.71-6.029,6.038v0.333h-2.383v-32.751c0-3.325-2.704-6.029-6.028-6.029c-3.251,0-5.89,2.582-6.012,5.801
				c0.397-1.814,1.988-4.49,5.97-4.49c4.367,0,5.874,3.206,6.058,4.901l0.006,9.033h-12.057v42.046l-7.015,8.505l-0.004,0.351
				c0,1.971,0.383,8.719,5.289,12.785l9.711,10.117C1131.502,450.678,1132.017,451.921,1132.56,454.105z"/>
		</g>
		<g>
			<path fill="#231F20" d="M353.532,429.152l-8.076-8.073l-0.237-0.234l-4.363,4.363l-0.088-0.109
				c-1.222-1.469-3.271-3.926-3.822-4.836c-0.762-1.271-1.237-2.251-1.43-2.67l-0.198-13.183c0.665-7.094-3.971-12.567-5.996-14.592
				c-0.397-0.395-0.642-0.608-0.647-0.611l-0.286-0.242l-10.895-1.05l-35.64-35.643c-1.586-1.584-3.7-2.458-5.949-2.458
				s-4.363,0.874-5.952,2.459c-3.278,3.282-3.278,8.617,0,11.898l18.781,18.775c-0.042,0-0.081,0-0.122,0
				c-2.25,0-4.363,0.874-5.947,2.458c-2.442,2.438-3.133,6.066-1.813,9.209c-2.595-0.343-5.185,0.551-7.023,2.387
				c-2.61,2.613-3.201,6.55-1.539,9.787c-2.478-0.223-4.92,0.671-6.677,2.426c-3.279,3.281-3.279,8.622,0,11.903l24.669,24.67
				c3.674,3.674,8.563,4.443,12.016,4.443c0.975,0,1.763-0.063,2.29-0.125l5.685,5.684l-4.498,4.498l8.31,8.311l-5.894,5.894
				l136.621,136.622l50.833-50.833L359.023,423.661L353.532,429.152z M283.375,360.417l-5.215,5.216l-4.545-4.54
				c-0.279-0.375-1.547-2.345,0.665-4.556c0.851-0.853,1.755-1.284,2.684-1.284c1.068,0,1.817,0.575,1.869,0.614L283.375,360.417z
				 M305.424,447.579l-0.611,0.099c-0.008,0.002-0.96,0.158-2.434,0.158c-2.494,0-7.161-0.483-10.408-3.733l-24.673-24.667
				c-2.353-2.356-2.353-6.186,0-8.536c1.136-1.139,2.652-1.769,4.264-1.769c1.615,0,3.131,0.63,4.267,1.769l0.237,0.234l1.682-1.682
				l-2.233-2.233c-1.139-1.136-1.765-2.65-1.765-4.264c0-1.615,0.626-3.128,1.763-4.265c1.139-1.139,2.654-1.763,4.267-1.763
				s3.128,0.627,4.264,1.766l0.237,0.234l1.682-1.683l-1.614-1.617c-1.139-1.136-1.766-2.652-1.768-4.27
				c0-1.614,0.626-3.13,1.768-4.269c1.133-1.134,2.646-1.76,4.259-1.76c1.617,0,3.133,0.626,4.27,1.765l0.236,0.237l1.685-1.685
				l-23.16-23.16c-1.136-1.136-1.765-2.649-1.765-4.262c0-1.612,0.629-3.125,1.768-4.264c1.136-1.139,2.652-1.765,4.267-1.765
				c1.508,0,2.915,0.564,4.022,1.565c-0.604-0.377-1.644-0.871-2.996-0.871c-1.573,0-3.032,0.663-4.339,1.968
				c-3.089,3.092-1.886,6.423-0.767,7.811l6.094,6.095l0.237,0.234l8.526-8.523l29.646,29.647l0.086,0.083l10.973,1.053l0.249,0.247
				c1.396,1.394,5.897,6.435,5.302,12.816l0.268,13.875l0.023,0.12c0.005,0.01,0.538,1.284,1.674,3.174
				c0.647,1.074,2.522,3.323,4.03,5.133l0.231,0.278l-27.213,27.21L305.424,447.579z M309.143,460.291l36.08-36.08l6.625,6.625
				l-36.08,36.08L309.143,460.291z M491.88,560.281l-47.067,47.067l-92.195-92.194l-40.661-40.662l47.067-47.067l40.661,40.661
				L491.88,560.281z"/>
		</g>
		<g>
			<path fill="#231F20" d="M1180.598,472.696v-11.753h-6.359v-8.037c1.819-1.446,7.059-6.222,7.059-13.17v-34.891
				c0-4.639-3.775-8.414-8.416-8.414c-2.486,0-4.845,1.113-6.436,3.003c-1.113-3.463-4.316-5.83-8.008-5.83
				c-2.621,0-5.063,1.215-6.654,3.276c-1.289-3.154-4.345-5.231-7.793-5.231c-2.299,0-4.451,0.92-6.029,2.553v-26.556
				c0-4.639-3.773-8.411-8.411-8.411c-4.64,0-8.414,3.772-8.414,8.411v50.404l-6.896,8.37l-0.064,0.078l-0.034,0.379
				c0,0-0.023,0.323-0.023,0.887c0,2.863,0.593,10.011,6.051,14.529l9.209,9.486c0.16,0.432,0.519,1.464,0.877,2.899
				c0.258,1.042,0.543,4.222,0.718,6.123l0.013,0.14h-6.17v11.753h-8.375v172.537c0,15.416-12.541,27.957-27.957,27.957H970.419
				v71.888h118.063c55.056,0,99.846-44.79,99.846-99.845V472.696H1180.598z M1121.785,440.551
				c-4.906-4.066-5.289-10.814-5.289-12.785l0.004-0.351l7.015-8.505v-42.046h12.057l-0.006-9.033
				c-0.184-1.695-1.69-4.901-6.058-4.901c-3.981,0-5.572,2.676-5.97,4.49c0.122-3.219,2.761-5.801,6.012-5.801
				c3.324,0,6.028,2.704,6.028,6.029v32.751h2.383v-0.333c0-3.328,2.704-6.038,6.029-6.038c3.328,0,6.038,2.71,6.038,6.038v2.286
				h2.379v-0.333c0-3.326,2.704-6.032,6.03-6.032c3.324,0,6.032,2.707,6.032,6.032v3.159h2.378v-0.333
				c0-3.329,2.707-6.035,6.033-6.035c3.327,0,6.035,2.706,6.035,6.035v34.891c0,6.833-6.488,11.563-6.562,11.612l-0.495,0.362v9.233
				h-38.485l-0.034-0.361c-0.212-2.348-0.479-5.268-0.78-6.477c-0.543-2.185-1.058-3.427-1.063-3.438L1121.785,440.551z
				 M1125.808,368.096c0.034-0.286,0.416-2.788,3.7-2.788c3.037,0,3.593,2.109,3.687,2.704v6.472h-7.377L1125.808,368.096z
				 M1127.193,463.325h51.025v9.371h-51.025V463.325z M1185.666,532.86v112.373c0,53.586-43.598,97.182-97.184,97.182H973.081
				v-66.563h115.401c16.884,0,30.62-13.737,30.62-30.619V532.86v-57.502h66.563V532.86z"/>
		</g>
		<g>
			<path fill="#231F20" d="M291.561,680.889l-11.75,0.002l-0.002,6.171l-0.195-0.019c-2.01-0.185-5.049-0.466-6.066-0.712
				c-1.454-0.366-2.473-0.72-2.899-0.88l-9.459-9.184c-4.545-5.483-11.696-6.076-14.561-6.076c-0.559,0.004-0.878,0.024-0.886,0.024
				l-0.377,0.033l-8.445,6.961h-50.404c-4.639,0-8.412,3.774-8.412,8.416c0,4.636,3.773,8.409,8.412,8.409h26.555
				c-1.633,1.578-2.553,3.73-2.553,6.029c-0.003,3.45,2.075,6.506,5.229,7.793c-2.063,1.592-3.274,4.035-3.274,6.654
				c0,3.691,2.366,6.895,5.83,8.008c-1.89,1.591-3.003,3.949-3.003,6.436c0,4.641,3.775,8.416,8.414,8.416h34.889
				c6.947,0,11.727-5.239,13.172-7.059h8.037l-0.002,6.359h11.752v8.406h138.015V673.19H291.561V680.889z M186.944,681.888
				l6.407,0.004v7.377l-6.425,0.003c-0.46-0.067-2.751-0.563-2.751-3.688C184.175,682.357,186.585,681.932,186.944,681.888z
				 M279.811,727.934l-9.238,0.002l-0.359,0.502c-0.047,0.064-4.714,6.555-11.61,6.555h-34.891c-3.328,0-6.035-2.71-6.035-6.037
				c0-3.326,2.707-6.032,6.033-6.032h0.333v-2.379l-3.156,0.002c-3.326,0-6.033-2.706-6.033-6.032s2.707-6.032,6.033-6.032h0.332
				v-2.379h-2.285c-1.61,0-3.125-0.629-4.267-1.771c-1.144-1.141-1.771-2.656-1.771-4.267c0-3.325,2.709-6.029,6.038-6.029h0.333
				v-2.382H186.51c-1.609,0-3.123-0.626-4.261-1.766c-1.139-1.142-1.763-2.652-1.763-4.262c0-3.241,2.577-5.881,5.788-6.014
				c-1.786,0.39-4.478,1.976-4.478,5.972c0.002,4.369,3.209,5.874,4.917,6.062l0.063,0.003l8.952-0.003l0.002-12.057h42.047
				l8.502-7.013c0.102-0.002,0.219-0.006,0.351-0.006c1.971,0,8.721,0.383,12.811,5.318l10,9.619l0.109,0.071
				c0.138,0.054,1.399,0.551,3.422,1.059c1.209,0.298,4.131,0.564,6.477,0.776l0.361,0.037V727.934z M291.561,734.295h-9.368
				l-0.003-4.315l0.003-46.709l9.368-0.003V734.295z M294.223,675.853h57.504h75.186v66.563h-75.186h-57.504V675.853z"/>
		</g>
	</g>
	<g>
		<g>
			<path fill="#FF6864" d="M727.571,723.591l-3.286,43.115l-17.757-18.971h-13.063l-17.756,18.971l-3.287-43.115
				c-7.153,0.902-40.944,5.985-60.183,23.45l-0.832,8.456c19.119,26.528,49.826,44.152,84.655,45.396
				c1.308,0.047,2.616,0.1,3.934,0.1s2.626-0.053,3.934-0.1c34.829-1.243,65.537-18.867,84.655-45.396l-0.832-8.456
				C768.506,729.565,734.725,724.49,727.571,723.591z M703.931,794.818c-1.078,0.877-2.437,1.426-3.934,1.426
				c-1.498,0-2.855-0.549-3.934-1.426c-1.419-1.153-2.345-2.892-2.345-4.856c0-3.461,2.816-6.277,6.279-6.277
				c3.463,0,6.282,2.816,6.282,6.277C706.279,791.927,705.351,793.665,703.931,794.818z M699.997,769.779
				c-3.463,0-6.279-2.816-6.279-6.279s2.816-6.281,6.279-6.281c3.463,0,6.282,2.818,6.282,6.281S703.46,769.779,699.997,769.779z"/>
		</g>
		<g>
			<path fill="#FFFFFF" d="M699.997,759.881c-1.994,0-3.617,1.622-3.617,3.619c0,1.995,1.623,3.617,3.617,3.617
				c1.997,0,3.619-1.622,3.619-3.617C703.616,761.503,701.994,759.881,699.997,759.881z"/>
		</g>
		<g>
			<path fill="#FFE8A0" d="M650.223,659.264c-2.595,3.56-2.969,8.871-1.113,15.785c0.395,0.971,4.488,10.923,11.862,16.692
				l0.77,0.612l0.33,0.912c0.097,0.268,0.224,0.611,0.377,0.995c0.016,0.045,0.037,0.094,0.054,0.141
				c1.178,2.954,3.95,8.835,9.078,14.301c0.021,0.023,0.042,0.048,0.064,0.07c1.415,1.501,3.011,2.959,4.8,4.324
				c0.135,0.104,0.271,0.208,0.408,0.312c0.736,0.546,1.508,1.072,2.307,1.582c5.356,3.39,12.187,5.787,20.822,5.787v2.662
				c-7.979,0-14.475-1.944-19.797-4.8l1.456,2.845l12.064,23.589h12.584l12.064-23.589l1.48-2.891v-2.983l0.632-0.39
				c7.057-4.353,11.575-10.403,14.29-15.192c1.117-1.979,1.932-3.739,2.485-5.077c0.008-0.019,0.019-0.04,0.023-0.056
				c0.011-0.029,0.021-0.05,0.031-0.075c0.25-0.616,0.45-1.145,0.593-1.547l0.333-0.92l0.765-0.607
				c7.761-6.078,11.83-16.655,11.999-17.103c1.753-6.603,1.353-11.82-1.234-15.383c-1.077-1.469-2.533-2.631-4.33-3.45l-1.858-0.866
				l0.316-1.095c1.251-4.315,1.856-8.283,1.856-12.137c0-25.22-20.517-45.737-45.735-45.737s-45.737,20.518-45.737,45.737
				c0,4.076,0.578,8.183,1.719,12.199l0.312,1.104l-1.763,0.797C652.745,656.632,651.294,657.794,650.223,659.264z"/>
		</g>
		<g>
			<path fill="#D1D1D1" d="M455.533,875.243h186.43h116.069h186.431c7.714,0,14.971-3.427,19.883-9.277H435.649
				C440.561,871.816,447.818,875.243,455.533,875.243z"/>
		</g>
		<g>
			<path fill="#D1D1D1" d="M644.656,877.906c-0.037,6.602-0.874,35.993-12.161,61.771h135.004
				c-11.29-25.778-12.124-55.17-12.161-61.771H644.656z"/>
		</g>
		<g>
			<polygon fill="#FFFFFF" points="601.837,942.34 601.837,951.425 798.157,951.425 798.157,942.34 771.639,942.34 628.356,942.34 
							"/>
		</g>
		<g>
			<path fill="#FFFFFF" d="M429.576,849.286c0,5,1.419,9.831,4.113,14.018h532.617c2.693-4.187,4.113-9.018,4.113-14.018v-7.767
				H429.576V849.286z"/>
		</g>
		<g>
			<polygon fill="#58595B" points="708.718,746.178 722.091,760.466 724.961,722.815 721.692,720.803 719.825,724.453 			"/>
		</g>
		<g>
			<path fill="#FFFFFF" d="M699.997,786.348c-1.994,0-3.617,1.622-3.617,3.614c0,1.996,1.623,3.619,3.617,3.619
				c1.997,0,3.619-1.623,3.619-3.619C703.616,787.97,701.994,786.348,699.997,786.348z"/>
		</g>
		<g>
			<path fill="#62CFF4" d="M949.384,565.219H450.611v252.034h498.773V565.219z M791.334,756.225
				c-0.769,1.09-1.549,2.171-2.358,3.232c-20.444,26.836-52.714,44.197-88.979,44.197c-36.264,0-68.534-17.361-88.979-44.197
				c-0.809-1.058-1.586-2.14-2.356-3.229c-12.889-18.222-20.492-40.432-20.492-64.4c0-61.662,50.165-111.826,111.827-111.826
				s111.827,50.164,111.827,111.826C811.824,715.792,804.221,738.004,791.334,756.225z"/>
		</g>
		<g>
			<path fill="#58595B" d="M944.462,543.615H455.533c-14.314,0-25.957,11.643-25.957,25.957v269.285h540.843V569.572
				C970.419,555.258,958.774,543.615,944.462,543.615z M952.046,819.915H447.948V562.557h504.098V819.915z"/>
		</g>
		<g>
			<path fill="#FFFFFF" d="M699.997,582.664c-60.193,0-109.164,48.971-109.164,109.163c0,22.283,6.724,43.017,18.232,60.311
				l0.626-6.367l0.369-0.344c21.316-19.723,59.091-24.184,63.147-24.612l4.291-2.646v-1.06c-0.76-0.489-1.49-0.997-2.195-1.52
				c-0.239-0.177-0.458-0.361-0.691-0.543c-0.673-0.522-1.326-1.056-1.948-1.604c-0.224-0.194-0.449-0.393-0.668-0.59
				c-0.777-0.716-1.526-1.44-2.22-2.175c-0.055-0.057-0.104-0.114-0.156-0.171c-0.702-0.754-1.362-1.511-1.983-2.268
				c-0.065-0.08-0.133-0.161-0.196-0.239c-4.03-4.979-6.328-9.885-7.416-12.624c-0.018-0.052-0.042-0.106-0.06-0.155
				c-0.161-0.408-0.296-0.77-0.397-1.054l-0.245-0.335c-7.754-6.066-11.969-16.014-12.736-17.946
				c-2.124-7.878-1.609-13.949,1.482-18.192c1.279-1.755,2.977-3.151,5.049-4.158c-1.009-3.899-1.519-7.873-1.519-11.822
				c0-26.688,21.711-48.399,48.399-48.399c26.688,0,48.398,21.712,48.398,48.399c0,3.772-0.541,7.636-1.653,11.775
				c2.111,1.004,3.848,2.419,5.156,4.205c3.084,4.246,3.627,10.221,1.617,17.764c-0.063,0.167-0.183,0.476-0.359,0.904
				c-1.245,3.012-5.356,11.862-12.524,17.477l-0.242,0.337c-0.078,0.222-0.172,0.477-0.28,0.763
				c-0.029,0.07-0.065,0.161-0.094,0.234c-0.086,0.223-0.175,0.447-0.278,0.701c-0.058,0.138-0.128,0.296-0.189,0.442
				c-0.091,0.216-0.178,0.424-0.278,0.655c-0.081,0.182-0.177,0.379-0.263,0.572c-0.102,0.221-0.197,0.434-0.31,0.668
				c-0.106,0.224-0.229,0.465-0.346,0.702c-0.109,0.218-0.211,0.429-0.328,0.657c-0.141,0.273-0.299,0.56-0.452,0.843
				c-0.111,0.206-0.214,0.406-0.33,0.616c-0.174,0.31-0.364,0.629-0.552,0.949c-0.116,0.2-0.226,0.396-0.351,0.598
				c-0.205,0.341-0.429,0.689-0.65,1.035c-0.122,0.192-0.239,0.38-0.366,0.574c-0.239,0.364-0.499,0.736-0.757,1.105
				c-0.127,0.185-0.252,0.369-0.385,0.557c-0.278,0.384-0.574,0.774-0.874,1.162c-0.132,0.175-0.257,0.346-0.393,0.517
				c-0.314,0.401-0.649,0.799-0.987,1.196c-0.139,0.167-0.273,0.336-0.416,0.502c-0.352,0.403-0.724,0.804-1.098,1.205
				c-0.148,0.16-0.291,0.321-0.444,0.48c-0.385,0.402-0.794,0.798-1.204,1.193c-0.161,0.156-0.314,0.312-0.48,0.466
				c-0.422,0.392-0.864,0.776-1.312,1.162c-0.174,0.15-0.343,0.302-0.522,0.452c-0.449,0.374-0.923,0.738-1.401,1.103
				c-0.195,0.147-0.388,0.302-0.59,0.447c-0.479,0.351-0.978,0.689-1.482,1.024c-0.164,0.108-0.317,0.223-0.483,0.333v1.078
				l4.29,2.646c4.056,0.429,41.831,4.89,63.146,24.612l0.369,0.344l0.052,0.504l0.578,5.861
				c11.505-17.292,18.229-38.025,18.229-60.309C809.16,631.635,760.19,582.664,699.997,582.664z"/>
		</g>
		<g>
			<polygon fill="#58595B" points="677.903,760.466 691.276,746.178 680.168,724.453 678.302,720.803 675.033,722.815 			"/>
		</g>
		<g>
			<path fill="#231F20" d="M944.462,540.952H455.533c-15.78,0-28.62,12.84-28.62,28.62v269.285v2.662v7.767
				c0,4.95,1.271,9.746,3.679,14.018h-0.138l1.42,2.08l0.395,0.582h0.057c5.383,7.476,13.984,11.94,23.207,11.94h186.46
				c-0.033,6.467-0.86,36.165-12.423,61.771h-30.396v14.409h201.645v-14.409h-30.396c-11.563-25.606-12.39-55.305-12.423-61.771
				h186.461c9.223,0,17.823-4.465,23.205-11.94h0.058l0.396-0.582l1.42-2.08h-0.138c2.407-4.271,3.679-9.067,3.679-14.018v-7.767
				v-2.662V569.572C973.081,553.792,960.242,540.952,944.462,540.952z M771.639,942.34h26.519v9.085h-196.32v-9.085h26.519H771.639z
				 M767.499,939.678H632.495c11.287-25.778,12.124-55.17,12.161-61.771h110.682C755.375,884.508,756.209,913.899,767.499,939.678z
				 M944.462,875.243H758.031H641.962h-186.43c-7.714,0-14.972-3.427-19.883-9.277h528.695
				C959.433,871.816,952.176,875.243,944.462,875.243z M970.419,849.286c0,5-1.42,9.831-4.113,14.018H433.689
				c-2.694-4.187-4.113-9.018-4.113-14.018v-7.767h540.843V849.286z M970.419,838.857H429.576V569.572
				c0-14.314,11.643-25.957,25.957-25.957h488.929c14.313,0,25.957,11.643,25.957,25.957V838.857z"/>
		</g>
		<g>
			<path fill="#231F20" d="M447.948,819.915h504.098V562.557H447.948V819.915z M450.611,565.219h498.773v252.034H450.611V565.219z"
				/>
		</g>
		<g>
			<path fill="#231F20" d="M699.997,580.001c-61.662,0-111.827,50.164-111.827,111.826c0,23.969,7.603,46.179,20.492,64.4
				c0.77,1.09,1.547,2.172,2.356,3.229c20.445,26.836,52.715,44.197,88.979,44.197c36.265,0,68.534-17.361,88.979-44.197
				c0.81-1.062,1.59-2.143,2.358-3.232c12.887-18.221,20.49-40.433,20.49-64.397C811.824,630.165,761.659,580.001,699.997,580.001z
				 M703.931,800.893c-1.308,0.047-2.615,0.1-3.934,0.1s-2.626-0.053-3.934-0.1c-34.829-1.243-65.536-18.867-84.655-45.396
				l0.832-8.456c19.238-17.465,53.029-22.548,60.183-23.45l3.287,43.115l17.756-18.971h13.063l17.757,18.971l3.286-43.115
				c7.153,0.899,40.935,5.975,60.183,23.45l0.832,8.456C769.468,782.025,738.76,799.649,703.931,800.893z M655.982,653.912
				c-1.142-4.017-1.719-8.123-1.719-12.199c0-25.22,20.518-45.737,45.737-45.737s45.735,20.518,45.735,45.737
				c0,3.854-0.605,7.821-1.856,12.137l-0.316,1.095l1.858,0.866c1.797,0.819,3.253,1.981,4.33,3.45
				c2.587,3.563,2.987,8.78,1.234,15.383c-0.169,0.447-4.238,11.024-11.999,17.103l-0.765,0.607l-0.333,0.92
				c-0.143,0.402-0.343,0.931-0.593,1.547c-0.011,0.025-0.021,0.046-0.031,0.075c-0.005,0.016-0.016,0.037-0.023,0.056
				c-0.554,1.338-1.368,3.098-2.485,5.077c-2.715,4.789-7.233,10.84-14.29,15.192l-0.632,0.39v2.983l-1.48,2.891l-12.064,23.589
				h-12.584l-12.064-23.589l-1.456-2.845c5.322,2.855,11.818,4.8,19.797,4.8v-2.662c-8.635,0-15.466-2.397-20.822-5.787
				c-0.798-0.51-1.571-1.036-2.307-1.582c-0.137-0.104-0.272-0.208-0.408-0.312c-1.789-1.365-3.386-2.823-4.8-4.324
				c-0.023-0.022-0.044-0.047-0.064-0.07c-5.128-5.466-7.899-11.347-9.078-14.301c-0.018-0.047-0.039-0.096-0.054-0.141
				c-0.154-0.384-0.281-0.728-0.377-0.995l-0.33-0.912l-0.77-0.612c-7.374-5.77-11.467-15.722-11.862-16.692
				c-1.856-6.914-1.482-12.226,1.113-15.785c1.071-1.47,2.522-2.632,4.309-3.45l1.763-0.797L655.982,653.912z M721.692,720.803
				l3.269,2.013l-2.87,37.65l-13.373-14.288l11.107-21.725L721.692,720.803z M680.168,724.453l11.108,21.725l-13.373,14.288
				l-2.87-37.65l3.269-2.013L680.168,724.453z M790.932,752.136l-0.578-5.861l-0.052-0.504l-0.369-0.344
				c-21.315-19.723-59.091-24.184-63.146-24.612l-4.29-2.646v-1.078c0.166-0.11,0.319-0.225,0.483-0.333
				c0.505-0.335,1.004-0.674,1.482-1.024c0.202-0.146,0.395-0.3,0.59-0.447c0.479-0.364,0.952-0.729,1.401-1.103
				c0.18-0.15,0.349-0.302,0.522-0.452c0.447-0.386,0.89-0.771,1.312-1.162c0.166-0.154,0.319-0.31,0.48-0.466
				c0.41-0.396,0.819-0.791,1.204-1.193c0.153-0.159,0.296-0.32,0.444-0.48c0.374-0.401,0.746-0.802,1.098-1.205
				c0.143-0.166,0.277-0.335,0.416-0.502c0.338-0.397,0.673-0.795,0.987-1.196c0.136-0.171,0.261-0.342,0.393-0.517
				c0.3-0.388,0.596-0.778,0.874-1.162c0.133-0.188,0.258-0.372,0.385-0.557c0.258-0.369,0.518-0.741,0.757-1.105
				c0.127-0.194,0.244-0.382,0.366-0.574c0.222-0.346,0.445-0.694,0.65-1.035c0.125-0.202,0.234-0.397,0.351-0.598
				c0.188-0.32,0.378-0.64,0.552-0.949c0.116-0.21,0.219-0.41,0.33-0.616c0.153-0.283,0.312-0.569,0.452-0.843
				c0.117-0.229,0.219-0.439,0.328-0.657c0.116-0.237,0.239-0.479,0.346-0.702c0.112-0.234,0.208-0.447,0.31-0.668
				c0.086-0.193,0.182-0.391,0.263-0.572c0.101-0.231,0.188-0.439,0.278-0.655c0.062-0.146,0.132-0.305,0.189-0.442
				c0.104-0.254,0.192-0.479,0.278-0.701c0.028-0.073,0.064-0.164,0.094-0.234c0.108-0.286,0.202-0.541,0.28-0.763l0.242-0.337
				c7.168-5.614,11.279-14.465,12.524-17.477c0.177-0.429,0.297-0.737,0.359-0.904c2.01-7.543,1.467-13.518-1.617-17.764
				c-1.309-1.786-3.045-3.201-5.156-4.205c1.112-4.14,1.653-8.003,1.653-11.775c0-26.688-21.711-48.399-48.398-48.399
				c-26.688,0-48.399,21.712-48.399,48.399c0,3.949,0.51,7.923,1.519,11.822c-2.072,1.007-3.771,2.403-5.049,4.158
				c-3.091,4.243-3.606,10.314-1.482,18.192c0.767,1.933,4.982,11.88,12.736,17.946l0.245,0.335
				c0.101,0.284,0.236,0.646,0.397,1.054c0.018,0.049,0.042,0.104,0.06,0.155c1.087,2.739,3.386,7.646,7.416,12.624
				c0.063,0.078,0.13,0.159,0.196,0.239c0.621,0.757,1.281,1.514,1.983,2.268c0.052,0.057,0.101,0.114,0.156,0.171
				c0.694,0.734,1.443,1.459,2.22,2.175c0.219,0.197,0.444,0.396,0.668,0.59c0.622,0.549,1.275,1.082,1.948,1.604
				c0.233,0.182,0.452,0.366,0.691,0.543c0.705,0.522,1.435,1.03,2.195,1.52v1.06l-4.291,2.646
				c-4.056,0.429-41.831,4.89-63.147,24.612l-0.369,0.344l-0.626,6.367c-11.508-17.294-18.232-38.027-18.232-60.311
				c0-60.192,48.971-109.163,109.164-109.163S809.16,631.635,809.16,691.827C809.16,714.11,802.437,734.844,790.932,752.136z"/>
		</g>
		<g>
			<path fill="#231F20" d="M699.997,757.219c-3.463,0-6.279,2.818-6.279,6.281s2.816,6.279,6.279,6.279
				c3.463,0,6.282-2.816,6.282-6.279S703.46,757.219,699.997,757.219z M699.997,767.117c-1.994,0-3.617-1.622-3.617-3.617
				c0-1.997,1.623-3.619,3.617-3.619c1.997,0,3.619,1.622,3.619,3.619C703.616,765.495,701.994,767.117,699.997,767.117z"/>
		</g>
		<g>
			<path fill="#231F20" d="M699.997,783.685c-3.463,0-6.279,2.816-6.279,6.277c0,1.965,0.926,3.703,2.345,4.856
				c1.079,0.877,2.437,1.426,3.934,1.426c1.497,0,2.855-0.549,3.934-1.426c1.42-1.153,2.349-2.892,2.349-4.856
				C706.279,786.501,703.46,783.685,699.997,783.685z M699.997,793.581c-1.994,0-3.617-1.623-3.617-3.619
				c0-1.992,1.623-3.614,3.617-3.614c1.997,0,3.619,1.622,3.619,3.614C703.616,791.958,701.994,793.581,699.997,793.581z"/>
		</g>
	</g>
	<g>
		<g>
			<path fill="#FFE8A0" d="M635.891,425.655c-0.364,0.634-0.534,1.149-0.593,1.352v10.12l-0.26,0.351
				c-0.117,0.13-0.522,0.497-1.048,0.788c-0.335,0.185-0.85,0.427-1.458,0.427c-0.486-0.024-0.871-0.136-1.217-0.335
				c-0.479-0.281-0.869-0.718-1.166-1.298l-0.138-0.413l-0.13-23.747v-26.433c0-2.187-1.779-3.965-3.962-3.965
				c-2.187,0-3.968,1.779-3.968,3.965v28.5c0,1.464-1.188,2.655-2.649,2.655c-1.461,0-2.65-1.191-2.65-2.655v-34.459
				c0-2.187-1.778-3.968-3.965-3.968c-2.187,0-3.965,1.781-3.965,3.968v32.936c0,1.461-1.188,2.65-2.649,2.65
				c-1.464,0-2.655-1.191-2.655-2.652v-26.974c0-2.187-1.779-3.965-3.962-3.965c-2.187,0-3.965,1.779-3.965,3.965v28.5
				c0,1.464-1.188,2.655-2.65,2.655c-1.461,0-2.649-1.191-2.649-2.655v-15.757c0-2.187-1.779-3.965-3.965-3.965
				c-2.184,0-3.962,1.779-3.962,3.965l-0.008,18.828l0.008,37.174c-0.021,0.814,0.029,1.641,0.151,2.549
				c0.601,4.602,2.889,8.224,3.148,8.624l1.825,2.538h39.668c10.814-4.969,14.446-16.703,15.643-23.253
				c0.182-0.999,0.309-1.864,0.392-2.559c0.12-1.001,0.154-1.633,0.162-1.758v-19.428
				C638.938,421.934,636.869,423.957,635.891,425.655z"/>
		</g>
		<g>
			<path fill="#FFE8A0" d="M812.609,468.921l1.838-2.556c0.246-0.382,2.535-4.004,3.136-8.604c0.122-0.91,0.172-1.737,0.151-2.535
				l0.008-37.189l-0.008-18.828c0-2.187-1.779-3.965-3.963-3.965c-2.187,0-3.966,1.779-3.966,3.965v15.757
				c0,1.464-1.188,2.655-2.649,2.655c-1.462,0-2.65-1.191-2.65-2.655v-28.5c0-2.187-1.777-3.965-3.965-3.965
				c-2.184,0-3.962,1.779-3.962,3.965v26.974c0,1.461-1.19,2.652-2.655,2.652c-1.461,0-2.648-1.188-2.648-2.65v-32.936
				c0-2.187-1.779-3.968-3.966-3.968s-3.965,1.781-3.965,3.968v34.459c0,1.464-1.188,2.655-2.65,2.655
				c-1.461,0-2.649-1.191-2.649-2.655v-28.5c0-2.187-1.781-3.965-3.968-3.965c-2.184,0-3.962,1.779-3.962,3.965v26.431
				l-0.131,23.923l-0.085,0.154c-0.349,0.666-0.739,1.103-1.212,1.38c-0.352,0.203-0.736,0.314-1.115,0.333
				c-0.008,0-0.019,0-0.026,0c-0.702,0-1.206-0.239-1.537-0.418c-0.527-0.294-0.934-0.661-1.05-0.791l-0.261-0.351v-10.12
				c-0.059-0.203-0.229-0.718-0.593-1.355c-0.978-1.695-3.047-3.718-7.36-3.729v19.444c0.008,0.109,0.041,0.741,0.161,1.742
				c0.083,0.694,0.211,1.56,0.393,2.559c1.193,6.539,4.815,18.243,15.653,23.253H812.609z"/>
		</g>
		<g>
			<polygon fill="#FFFFFF" points="623.99,471.412 581.085,471.412 581.085,482.036 633.517,482.036 633.517,471.412 
				623.985,471.42 			"/>
		</g>
		<g>
			<polygon fill="#FFFFFF" points="818.912,471.412 810.503,471.42 810.511,471.412 766.479,471.412 766.479,482.036 
				818.912,482.036 			"/>
		</g>
		<g>
			<path fill="#231F20" d="M633.283,425.033c-0.245,0.502-0.448,1.027-0.596,1.62l-0.013,9.503
				c-0.063,0.021-0.096,0.052-0.132,0.026c-0.01-0.011-0.024-0.023-0.034-0.039l-0.132-49.678c0-3.565-2.896-6.464-6.456-6.464
				c-3.565,0-6.464,2.899-6.464,6.464v28.5c0,0.177-0.309,0.171-0.309,0v-34.459c0-3.56-2.896-6.456-6.459-6.456
				c-3.56,0-6.456,2.896-6.456,6.456v32.936c0,0.175-0.317,0.175-0.317,0v-26.976c0-3.565-2.896-6.464-6.458-6.464
				c-3.563,0-6.459,2.899-6.459,6.464v28.5c0,0.171-0.312,0.171-0.312,0v-15.757c0-3.564-2.896-6.464-6.459-6.464
				c-3.562,0-6.458,2.899-6.458,6.464l0.005,55.963c-0.019,0.608,0.016,1.237,0.064,1.903l0.169,1.453
				c0.792,5.188,3.388,9.098,3.51,9.28l0.801,1.113h-5.728v13.115h-6.87v60.914h71.166v-60.914h-6.875v-13.115h-3.789
				c10.18-7.2,12.804-20.039,13.466-25.455c0.141-1.175,0.188-1.968,0.188-2.075v-21.945l-1.209-0.088
				C637.37,418.762,634.385,422.743,633.283,425.033z M640.386,484.532v55.917h-66.173v-55.917H640.386z M633.517,471.412v10.624
				h-52.432v-10.624h42.905l-0.005,0.008L633.517,471.412z M643.252,441.352c-0.008,0.125-0.042,0.757-0.162,1.758
				c-0.083,0.694-0.21,1.56-0.392,2.559c-1.196,6.55-4.829,18.284-15.643,23.253h-39.668l-1.825-2.538
				c-0.26-0.4-2.548-4.022-3.148-8.624c-0.122-0.908-0.172-1.735-0.151-2.549l-0.008-37.174l0.008-18.828
				c0-2.187,1.778-3.965,3.962-3.965c2.187,0,3.965,1.779,3.965,3.965v15.757c0,1.464,1.188,2.655,2.649,2.655
				c1.461,0,2.65-1.191,2.65-2.655v-28.5c0-2.187,1.778-3.965,3.965-3.965c2.184,0,3.962,1.779,3.962,3.965v26.974
				c0,1.461,1.19,2.652,2.655,2.652c1.461,0,2.649-1.188,2.649-2.65v-32.936c0-2.187,1.778-3.968,3.965-3.968
				c2.187,0,3.965,1.781,3.965,3.968v34.459c0,1.464,1.188,2.655,2.65,2.655c1.461,0,2.649-1.191,2.649-2.655v-28.5
				c0-2.187,1.782-3.965,3.968-3.965c2.184,0,3.962,1.779,3.962,3.965v26.433l0.13,23.747l0.138,0.413
				c0.297,0.58,0.687,1.017,1.166,1.298c0.346,0.2,0.73,0.312,1.217,0.335c0.608,0,1.123-0.242,1.458-0.427
				c0.526-0.292,0.931-0.658,1.048-0.788l0.26-0.351v-10.12c0.06-0.203,0.229-0.718,0.593-1.352
				c0.978-1.698,3.047-3.721,7.361-3.731V441.352z"/>
		</g>
		<g>
			<path fill="#231F20" d="M821.408,482.036v-13.115h-5.731l0.814-1.131c0.111-0.164,2.706-4.074,3.502-9.279l0.156-1.246
				l0.01-0.205c0.05-0.65,0.083-1.28,0.065-1.867l0.005-55.983c0-3.564-2.896-6.464-6.458-6.464c-3.563,0-6.459,2.899-6.459,6.464
				v15.757c0,0.171-0.313,0.171-0.313,0v-28.5c0-3.565-2.896-6.464-6.459-6.464c-3.562,0-6.458,2.899-6.458,6.464v26.976
				c0,0.175-0.317,0.175-0.317,0v-32.936c0-3.56-2.896-6.456-6.456-6.456c-3.563,0-6.459,2.896-6.459,6.456v34.459
				c0,0.171-0.31,0.177-0.31,0v-28.5c0-3.565-2.899-6.464-6.464-6.464c-3.56,0-6.456,2.899-6.456,6.464v26.425l-0.132,23.263
				c-0.009,0.013-0.016,0.029-0.024,0.042c-0.025,0-0.078-0.013-0.143-0.04l-0.003-9.368l-0.036-0.275
				c-0.122-0.452-0.325-0.978-0.566-1.479c-1.103-2.291-4.101-6.274-11.384-5.676l-1.212,0.088v21.945
				c0,0.107,0.047,0.9,0.188,2.077c0.663,5.414,3.287,18.253,13.467,25.453h-3.789v13.115h-6.875v60.914h71.166v-60.914H821.408z
				 M757.299,445.668c-0.182-0.999-0.31-1.864-0.393-2.559c-0.12-1.001-0.153-1.633-0.161-1.742v-19.444
				c4.313,0.011,6.383,2.033,7.36,3.729c0.364,0.637,0.534,1.152,0.593,1.355v10.12l0.261,0.351c0.116,0.13,0.522,0.497,1.05,0.791
				c0.331,0.179,0.835,0.418,1.537,0.418c0.008,0,0.019,0,0.026,0c0.379-0.019,0.764-0.13,1.115-0.333
				c0.473-0.278,0.863-0.715,1.212-1.38l0.085-0.154l0.131-23.923v-26.431c0-2.187,1.778-3.965,3.962-3.965
				c2.187,0,3.968,1.779,3.968,3.965v28.5c0,1.464,1.188,2.655,2.649,2.655c1.462,0,2.65-1.191,2.65-2.655v-34.459
				c0-2.187,1.778-3.968,3.965-3.968s3.966,1.781,3.966,3.968v32.936c0,1.461,1.188,2.65,2.648,2.65
				c1.465,0,2.655-1.191,2.655-2.652v-26.974c0-2.187,1.778-3.965,3.962-3.965c2.188,0,3.965,1.779,3.965,3.965v28.5
				c0,1.464,1.188,2.655,2.65,2.655c1.461,0,2.649-1.191,2.649-2.655v-15.757c0-2.187,1.779-3.965,3.966-3.965
				c2.184,0,3.963,1.779,3.963,3.965l0.008,18.828l-0.008,37.189c0.021,0.798-0.029,1.625-0.151,2.535
				c-0.601,4.6-2.89,8.222-3.136,8.604l-1.838,2.556h-39.657C762.114,463.911,758.492,452.207,757.299,445.668z M766.479,471.412
				h44.031l-0.008,0.008l8.409-0.008v10.624h-52.433V471.412z M825.783,540.448H759.61v-55.917h66.173V540.448z"/>
		</g>
		<g>
			<rect x="574.213" y="484.532" fill="#FF6864" width="66.173" height="55.917"/>
		</g>
		<g>
			<rect x="759.61" y="484.532" fill="#FF6864" width="66.173" height="55.917"/>
		</g>
	</g>
	<g>
		<path d="M588.17,693.159h-92.525c-0.736,0-1.331-0.596-1.331-1.332c0-0.735,0.595-1.331,1.331-1.331h92.525
			c0.736,0,1.332,0.596,1.332,1.331C589.502,692.563,588.906,693.159,588.17,693.159z"/>
	</g>
	<g>
		<path d="M904.35,693.159h-92.525c-0.736,0-1.332-0.596-1.332-1.332c0-0.735,0.596-1.331,1.332-1.331h92.525
			c0.735,0,1.331,0.596,1.331,1.331C905.681,692.563,905.085,693.159,904.35,693.159z"/>
	</g>
</g>
</svg>
