<?xml version="1.0" encoding="utf-8"?>
<!-- Generator: Adobe Illustrator 19.0.0, SVG Export Plug-In . SVG Version: 6.00 Build 0)  -->
<svg version="1.1" xmlns="http://www.w3.org/2000/svg" xmlns:xlink="http://www.w3.org/1999/xlink" x="0px" y="0px"
	 viewBox="0 0 1600 1200" style="enable-background:new 0 0 1600 1200;" xml:space="preserve">
<style type="text/css">
	.st0{fill:#FFFFFF;}
	.st1{fill:#BDCBD4;}
	.st2{fill:#1A1A1A;}
	.st3{fill:#272727;}
	.st4{fill:#FDDFD2;}
	.st5{fill:#096473;}
	.st6{fill:#008EA3;}
	.st7{fill:#FFC7BB;}
	.st8{fill:#C98272;}
	.st9{fill:#281616;}
	.st10{fill:#FB2257;}
	.st11{fill:#F8CA7A;}
	.st12{fill:#FF3262;}
	.st13{fill:#DBBEBF;}
	.st14{fill:#DD2F57;}
</style>
<g id="Layer_2">
	<rect id="XMLID_106_" class="st0" width="1600" height="1200"/>
	<path id="XMLID_75_" class="st1" d="M243,457.1c0,0,872.1-221.5,774.7-140.7S710.7,451.7,860.2,451.2
		c149.5-0.5,504.2-34.8,343.9,100.4s-194,136.1-60,172.4c134,36.3,551.8,235.5-242.6,283.7C107.1,1056,436.7,891,436.7,891
		s184.9-80.7-36.8-162.3C193,621.7,194.8,528.2,268.8,516.8C342.8,505.4,756.3,490.2,243,457.1z"/>
	<g id="XMLID_76_">
		<path id="XMLID_78_" class="st2" d="M1357.6,926.1c-0.1-0.4-7.4-37.6-41.8-79.8c-31.7-39-93.6-90.3-208.3-113.5
			c-71-14.4-108-33.4-113.3-58.3c-3.5-16.4,6.4-35,31-58.4c21.6-20.5,52.4-42.4,82.1-63.6c19.6-14,39.9-28.4,57.6-42.5
			c21.7-17.2,30.7-29.2,27.6-36.6c-7.7-18.2-88-8-189.6,5c-45.4,5.8-96.8,12.4-147.3,17c-65.7,6.1-94.9,4.9-97.5-4
			c-3.6-12.3,46.4-38.2,122-77.4c39.9-20.7,85.2-44.2,134-71.5c41.4-23.1,60.5-39.9,56.9-49.8c-12.2-33.3-269.8,16.5-272.4,17
			l-0.2-1c10.7-2.1,261.1-50.5,273.5-16.4c3.9,10.6-14.9,27.3-57.3,51c-48.8,27.3-94.1,50.8-134,71.5
			c-72.5,37.6-124.9,64.8-121.5,76.3c2.4,8.1,33,9.1,96.4,3.3c50.5-4.7,101.9-11.2,147.3-17c102-13,182.6-23.3,190.6-4.4
			c3.3,7.9-5.8,20.2-27.9,37.8c-17.7,14.1-38,28.5-57.7,42.5c-59.1,42.1-120.3,85.6-112.8,121c5.2,24.4,42,43.3,112.6,57.5
			c50.8,10.3,95.6,26.9,133.1,49.3c30.1,18,55.6,39.7,75.8,64.6c34.5,42.4,41.9,79.8,41.9,80.2L1357.6,926.1z"/>
	</g>
	<g id="XMLID_55_">
		<path id="XMLID_83_" class="st2" d="M222.8,639.3c-33.7-37.3-45.7-68.4-35.5-92.4c9.6-22.6,38.8-39.1,86.7-48.9
			c40.9-8.4,85.5-9.9,107-10.7c10.2-0.4,11.5-1.2,11.7-1.5c-2-4.9-118.9-19.5-197-28.1l-1.9-0.2l1.8-0.7
			c164.8-68.3,511.9-136.3,515.4-137l0.2,1c-3.5,0.7-347.9,68.2-513.4,136.2c9.6,1.1,53.5,6,96.9,11.6c99.2,12.7,99.1,16,99.1,17.5
			c0,0.9-1,2-12.6,2.4c-21.4,0.7-66,2.3-106.8,10.7c-47.6,9.8-76.5,26-86,48.3c-10,23.6,1.9,54.4,35.3,91.4L222.8,639.3z"/>
	</g>
</g>
<g id="Layer_1">
	<rect id="XMLID_8_" x="738" y="1024.9" class="st3" width="141" height="6.5"/>
	<rect id="XMLID_46_" x="744.1" y="1018.5" class="st4" width="124.2" height="6.4"/>
	<g id="XMLID_1_">
		<path id="XMLID_26_" class="st5" d="M625.4,676.2c0,0,101.2,151.9,118.6,231.1l-63.2,127.1L625.4,676.2z"/>
		<polygon id="XMLID_30_" class="st4" points="816.3,991.4 680.9,1034.4 705.3,802.9 829.8,802.9 		"/>
		<path id="XMLID_19_" class="st6" d="M422.4,612.4l-123.1,72.2c0,0-121.8,230.7-106,308.1l94.4,41.7h393.2c0,0-9-312.4-55.4-358.2
			l-106.1-56.1L422.4,612.4z"/>
		<path id="XMLID_18_" class="st7" d="M519.3,583v37.1c0,0-25.4,42.5-96.9-7.7l25.1-141.8l67.7,106.2L519.3,583z"/>
		<path id="XMLID_16_" class="st8" d="M519.3,583v25.1c-16.2-0.9-64.5-10.1-64.6-89.5l60.6,58.1L519.3,583z"/>
		<path id="XMLID_54_" class="st7" d="M571.3,469.3c0,0-11.1,105.2-52,113.8c-9.4,2-20.5-1.2-33.3-12c-18.8-15.8-30.3-38.5-33-62.9
			c-4.1-35.7,2.3-71.1,2.3-71.1l96.6,26.8L571.3,469.3z"/>
		<g id="XMLID_21_">
			<polygon id="XMLID_13_" class="st9" points="747.9,1003.2 768.2,1018.9 755.9,996.1 			"/>
			<path id="XMLID_20_" class="st9" d="M644.5,869.3l-4.5,3.8c-1.3,1.1-3.3,1-4.5-0.4l-7.7-9c-1.1-1.3-1-3.3,0.4-4.5l4.5-3.8
				c1.3-1.1,3.3-1,4.5,0.4l7.7,9C646,866.1,645.9,868.1,644.5,869.3z"/>
			<path id="XMLID_12_" class="st10" d="M637.7,860.7l-5.8,5c-1.7,1.5-4.3,1.3-5.8-0.5l-6.5-7.6c-1.5-1.7-1.3-4.3,0.5-5.8l5.8-5
				c1.7-1.5,4.3-1.3,5.8,0.5l6.5,7.6C639.7,856.6,639.5,859.3,637.7,860.7z"/>
			<path id="XMLID_11_" class="st11" d="M754.8,997.8l-5.8,5c-1.7,1.5-4.3,1.3-5.8-0.5l-111-130.2c-1.5-1.7-1.3-4.3,0.5-5.8l5.8-5
				c1.7-1.5,4.3-1.3,5.8,0.5l111,130.2C756.8,993.7,756.5,996.3,754.8,997.8z"/>
		</g>
		<path id="XMLID_23_" class="st7" d="M783,917.5c0,0,45.4-27.1,48.7-26.1s1.6,15.8,1.6,15.8S785,934.9,783,917.5z"/>
		<path id="XMLID_22_" class="st7" d="M782.6,934.7c0,0-0.2-10.9,45-5.1c0,0,1.5,11.8-10.2,11.1S786.7,942.2,782.6,934.7z"/>
		<path id="XMLID_25_" class="st7" d="M783,944.3c0,0,34.6-6.6,43.9-1.5c0,0,2.5,9.7-5.9,10.9C812.6,954.9,781.6,958,783,944.3z"/>
		<polygon id="XMLID_28_" class="st8" points="833.3,907.2 821,923.3 821,913.6 		"/>
		<path id="XMLID_14_" class="st5" d="M362.7,791.7c0,0-6,77-49.3,140.7l168,48C481.3,980.5,456.7,869.9,362.7,791.7z"/>
		<path id="XMLID_24_" class="st7" d="M741.4,936.8c-1.3-9.9-53.8-10.6-62.7-9.9c-8.9,0.8-79.4,47.8-87.7,49.8
			c-6.2,1.5-25.3-2.6-34.5-4.7c-3.8-0.9-7.7-1.7-11.6-2.3l-244.6-40.3c-9.3-3.2-19.7-5.1-30.7-5.1c-40.8,0-74,25.1-74,56.1v0.7
			c0.5,30.7,33.4,55.4,74,55.4c1.5,0,2.9,0,4.4-0.1l277.2-6.7l0.3,0l35.9-0.9c17.9,13.9,87.2-10.6,87.2-10.6l42.7,4.3
			c14.9-3.5,6.1-15.7,6.1-15.7c20,0,8.6-18.2,8.6-18.2s3.3-0.6,4.9-6.6c7,6.2,13.8,5.1,13.8,5.1S742.7,946.7,741.4,936.8z
			 M696,948.2l27.9,7.1c0.6,2.7,1.2,5.2,1.9,7.5C713.9,955.1,697.1,948.6,696,948.2z"/>
		<path id="XMLID_27_" class="st8" d="M674.7,1018.2c0,0-69.4,24.5-87.2,10.6l-35.9,0.9l-0.3,0l-277.2,6.7c-1.5,0.1-2.9,0.1-4.4,0.1
			c-40.5,0-73.5-24.7-74-55.4c20.9,18.6,65.1,43.5,146.6,34.1C468,1000.8,658,1001.8,674.7,1018.2z"/>
		<g id="XMLID_35_">
			<path id="XMLID_72_" class="st2" d="M338.3,889.7l-2.8-1.1c18.3-46.6,27.3-86.6,26.5-118.9c-0.6-26-7.5-47.2-20.4-62.9
				c-24.9-30.1-62.9-29.3-63.3-29.2l-0.7-2.9c3.1-0.8,39.7,0.1,64.6,28.2c14.1,16,21.8,37.7,22.8,64.6
				C366.2,800.6,357.2,841.7,338.3,889.7z"/>
		</g>
		<path id="XMLID_51_" class="st8" d="M571.3,469.3c0,0-11.1,105.2-52,113.8c0,0,40-72.2,32.6-119.2L571.3,469.3z"/>
		<path id="XMLID_2_" class="st2" d="M464.1,466.4c0,0,149.4,47.4,150.8-59c1.5-106.4-37.2,12.1-60.4-10.6
			c-23.2-22.7-94.4-50.3-98.6,15c0,0-30-30-15,70.6C446.2,500.7,464.1,466.4,464.1,466.4z"/>
		<path id="XMLID_9_" class="st7" d="M449.1,478.3c0,0-25.1-46.1-19-2.3C436.2,519.9,441.1,515.4,449.1,478.3z"/>
		<path id="XMLID_10_" class="st8" d="M441.6,474.6c0,0-12.9-21.6-6.6,7.7c6.3,29.3,9.2-1.9,9.2-1.9l-6.8,3.1L441.6,474.6z"/>
		<g id="XMLID_56_">
			<path id="XMLID_73_" class="st2" d="M480.4,657.2c-14.2,0-26.5-3.2-36.2-7.2c-24.3-10.1-38.2-26.7-38.8-27.4l2.3-1.9
				c0.1,0.2,14,16.9,37.7,26.6c21.8,9,56.6,13.7,98.9-14.7l1.7,2.5C521.4,651.7,499.2,657.2,480.4,657.2z"/>
		</g>
		<g id="XMLID_79_">
			<path id="XMLID_97_" class="st0" d="M535.5,454.1c-10.8,0-22.8-1.8-35.9-5.4l0.3-1c33.1,9,58.8,6.6,76.4-7.3
				c25.8-20.3,24.9-58.6,24.9-58.9l1,0c0,0.4,0.8,39.2-25.3,59.8C566,449.8,552.2,454.1,535.5,454.1z"/>
		</g>
		<g id="XMLID_80_">
			<path id="XMLID_95_" class="st0" d="M471.3,414l-1-0.3c3.7-11.5,10.2-19.4,19.4-23.3c9.5-4.1,27-6,56,8c0.7,0.3,1.2,0.6,1.3,0.6
				l-0.1,0.3v0.7c-0.2,0-0.3-0.1-1.7-0.7c-28.7-13.9-45.8-12-55.2-8C481.3,395.1,474.9,402.7,471.3,414z"/>
		</g>
		<g id="XMLID_81_">
			<path id="XMLID_96_" class="st0" d="M527.6,439.5c-7.2,0-15-0.7-23.3-2l0.2-1c30.1,4.7,53.1,0.8,68.4-11.6
				c16.8-13.6,18-33,18-33.1l1,0.1c0,0.2-1.2,20-18.3,33.9C562.2,434.9,546.8,439.5,527.6,439.5z"/>
		</g>
		<path id="XMLID_3_" class="st7" d="M793.7,963.6c0,0,28.2-13.3,37.3-11.9c0,0,4.2,6.3-2.8,9.3C821.3,964,795.3,973.9,793.7,963.6z
			"/>
	</g>
	<path id="XMLID_32_" class="st3" d="M1434.7,1042.1H165.3c-2.9,0-5.3-2.4-5.3-5.3l0,0c0-2.9,2.4-5.3,5.3-5.3h1269.3
		c2.9,0,5.3,2.4,5.3,5.3l0,0C1440,1039.7,1437.6,1042.1,1434.7,1042.1z"/>
	<g id="XMLID_36_">
		<path id="XMLID_40_" class="st3" d="M1084.8,1020H1282c2.7,0,5.1-1.7,6.1-4.2l41.6-111.3c1.6-4.2-1.5-8.7-6.1-8.7h-197.8
			c-2.7,0-5.1,1.7-6.1,4.2l-40.9,111.3C1077.2,1015.6,1080.3,1020,1084.8,1020z"/>
		<path id="XMLID_52_" class="st12" d="M1327.1,911.1l-39.1,104.6c-1,2.6-3.5,4.4-6.3,4.4h-190.3c-4.7,0-7.9-4.7-6.3-9.1l14.7-39.5
			h0l24.3-65.1c1-2.6,3.5-4.4,6.3-4.4h190.3C1325.5,902,1328.8,906.7,1327.1,911.1z"/>
		<path id="XMLID_41_" class="st13" d="M1283.7,1029.7h-197c-2.7,0-4.8-2.2-4.8-4.8l0,0c0-2.7,2.2-4.8,4.8-4.8h197
			c2.7,0,4.8,2.2,4.8,4.8l0,0C1288.5,1027.5,1286.4,1029.7,1283.7,1029.7z"/>
		<path id="XMLID_42_" class="st3" d="M1082,1029.7H900.4c-2.7,0-4.8-2.2-4.8-4.8l0,0c0-2.7,2.2-4.8,4.8-4.8H1082
			c2.7,0,4.8,2.2,4.8,4.8l0,0C1086.9,1027.5,1084.7,1029.7,1082,1029.7z"/>
		<path id="XMLID_50_" class="st14" d="M1327.1,911.1l-39.1,104.6c-1,2.6-3.5,4.4-6.3,4.4h-190.3c-4.7,0-7.9-4.7-6.3-9.1l14.7-39.5
			h0l134.6-69.5h86.3C1325.5,902,1328.8,906.7,1327.1,911.1z"/>
	</g>
	<g id="XMLID_64_">
		<polygon id="XMLID_47_" class="st12" points="943.6,414.1 920.6,482.3 1014.4,482.3 993.1,414.1 		"/>
		<polygon id="XMLID_60_" class="st3" points="956.4,377.1 926.3,414.1 1007,414.1 978.6,377.1 		"/>
		<rect id="XMLID_61_" x="956.4" y="342.9" class="st3" width="22.2" height="34.3"/>
		<polygon id="XMLID_62_" class="st14" points="966.7,414.1 966.7,482.3 1014.4,482.3 993.1,414.1 		"/>
		<g id="XMLID_63_">
			<rect id="XMLID_90_" x="965.2" y="157.9" class="st3" width="3" height="202.1"/>
		</g>
	</g>
	<g id="XMLID_65_">
		<polygon id="XMLID_70_" class="st12" points="1101.4,464.3 1078.4,532.5 1172.2,532.5 1150.9,464.3 		"/>
		<polygon id="XMLID_69_" class="st3" points="1114.2,427.3 1084.1,464.3 1164.8,464.3 1136.4,427.3 		"/>
		<rect id="XMLID_68_" x="1114.2" y="393.1" class="st3" width="22.2" height="34.3"/>
		<polygon id="XMLID_67_" class="st14" points="1124.4,464.3 1124.4,532.5 1172.2,532.5 1150.9,464.3 		"/>
		<g id="XMLID_66_">
			<rect id="XMLID_91_" x="1122.9" y="208.1" class="st3" width="3" height="202.1"/>
		</g>
	</g>
	<g id="XMLID_4_">
		<g id="XMLID_82_">
			<path id="XMLID_92_" class="st2" d="M1261.6,631.7v-95.5h88.6L1261.6,631.7z M1262.6,537.2v92l85.3-92H1262.6z"/>
		</g>
		<path id="XMLID_129_" class="st0" d="M916,639l2-0.2l-3-24.7l-2,0.2l1.4,11.9c-2.6-2-33.4-25.7-65.3-20.4
			c-17.1,2.9-31.7,13.4-43.2,31.5c-3.8-3.5-19-16-39.4-14.7c-18.1,1.1-35.4,12.6-51.3,34l-1.1,1.5l-1.6-13.3l-2,0.2l3,24.7l2-0.2
			l-1.3-10.9l200.5-30.4L916,639z M718.3,655.8c15.2-19.6,31.4-30.1,48.4-31.2c1-0.1,1.9-0.1,2.9-0.1c21.1,0,35.8,14.9,35.9,15.1
			l0.9,0.9l0.7-1.1c11.3-18.2,25.6-28.8,42.4-31.6c27.8-4.6,54.9,13.4,62.1,18.7L718.3,655.8z"/>
		<path id="XMLID_85_" class="st4" d="M866.2,665l-32.8,74.9c0,0-0.6,16.9,27.5,28.1c28.1,11.2,54.3,25,61.2,33.7l35.6-74.3
			c0,0-23.9-14.8-38.1-16.8C905.7,708.7,866.2,665,866.2,665z"/>
		<path id="XMLID_84_" class="st4" d="M1318.6,251.8l-32.8,74.9c0,0-0.6,16.9,27.5,28.1c28.1,11.2,54.3,25,61.2,33.7l35.6-74.3
			c0,0-23.9-14.8-38.1-16.8C1358.1,295.5,1318.6,251.8,1318.6,251.8z"/>
		<g id="XMLID_86_">
			<polygon id="XMLID_104_" class="st2" points="207.9,314.1 215.2,295.3 160.5,259 			"/>
			<polygon id="XMLID_101_" class="st4" points="215.2,295.3 230.9,290 160.5,259 			"/>
			<polygon id="XMLID_103_" class="st2" points="196.6,301 207.9,314.1 207.9,297.3 			"/>
			<polygon id="XMLID_102_" class="st4" points="160.5,259 182.2,305.6 207.9,297.3 			"/>
		</g>
		<g id="XMLID_105_">
			<path id="XMLID_87_" class="st2" d="M257.4,387c-1.8,0-3.5-0.2-5.3-0.5c-12.8-2.5-21.5-13.9-27-22.2
				c-8.5-12.9-15.1-26.9-19.6-41.7l1-0.3c4.5,14.7,11,28.6,19.5,41.4c8.5,13,16.9,19.9,26.3,21.8c13.8,2.7,26.5-6.4,32.9-12.1
				c4.9-4.3,9.2-9.2,12.9-14.5c-3.5-8.3-5.1-17.5-4.7-26.5c0.2-3.8,1.5-9.2,4.8-12.2c1.6-1.4,3.4-2.1,5.4-2c2.3,0.1,4.2,1.2,5.6,3.2
				c2.8,4,2.6,11.1,1,15.9c-2.6,7.8-6.3,15.1-10.9,21.8c1,2.4,2.2,4.7,3.5,6.9c3.3,5.5,8.8,12.3,16.7,13.8
				c6.7,1.2,13.5-1.8,18.7-4.6c24.9-13.3,44-35.5,62.4-57c20-23.2,40.6-47.3,68.7-59.9c25.1-11.3,53.3-12.3,82.4-12.4
				c18.2-0.1,35.7,0.7,49.3,10.6c7.7,5.6,13.2,13.6,18.6,21.4c5.8,8.4,11.8,17.1,20.4,22.5c11.7,7.3,28.3,8,44.3,1.9
				c14.5-5.6,26.8-15.5,38.7-25l87.1-70l0.6,0.8l-87.1,70c-11.9,9.6-24.3,19.5-38.9,25.2c-16.3,6.3-33.1,5.5-45.1-2
				c-8.8-5.5-14.9-14.3-20.7-22.8c-5.3-7.7-10.8-15.7-18.3-21.2c-13.3-9.7-30.6-10.4-48.7-10.4c-29,0.1-57.1,1.1-82,12.3
				c-27.9,12.5-48.4,36.5-68.3,59.6c-18.5,21.5-37.6,43.8-62.7,57.2c-5.3,2.8-12.3,5.9-19.3,4.7c-8.3-1.5-14-8.6-17.4-14.2
				c-1.2-2.1-2.4-4.3-3.3-6.5c-3.7,5.2-7.9,9.9-12.7,14.2C280.1,379.3,269.5,387,257.4,387z M303.1,319.2c-1.6,0-3.1,0.6-4.3,1.7
				c-3,2.7-4.3,7.9-4.5,11.5c-0.4,8.6,1.1,17.4,4.4,25.5c4.4-6.5,7.9-13.5,10.4-21c1.5-4.6,1.7-11.2-0.8-15
				c-1.2-1.7-2.8-2.6-4.8-2.7C303.3,319.2,303.2,319.2,303.1,319.2z"/>
		</g>
		
			<rect id="XMLID_110_" x="651.6" y="463.9" transform="matrix(0.9143 -0.4051 0.4051 0.9143 -152.6883 326.406)" class="st4" width="86.4" height="120.1"/>
		<g id="XMLID_116_">
			
				<rect id="XMLID_111_" x="1205.1" y="608.7" transform="matrix(0.7422 -0.6702 0.6702 0.7422 -69.7698 1072.3717)" class="st4" width="308" height="36.3"/>
			<g id="XMLID_115_">
				<polygon id="XMLID_121_" class="st2" points="1238.3,733.4 1237.7,732.6 1467.1,531.8 1477.5,544.5 1476.7,545.1 1466.9,533.2 
									"/>
			</g>
			<g id="XMLID_117_">
				
					<rect id="XMLID_124_" x="1380.2" y="612" transform="matrix(0.678 0.7351 -0.7351 0.678 897.5617 -823.8378)" class="st2" width="17.6" height="1"/>
			</g>
		</g>
		<g id="XMLID_118_">
			
				<rect id="XMLID_122_" x="1274.7" y="704.9" transform="matrix(0.6393 0.7689 -0.7689 0.6393 1005.6935 -733.3316)" class="st2" width="19.7" height="1"/>
		</g>
		<g id="XMLID_119_">
			
				<rect id="XMLID_123_" x="1281.2" y="699.1" transform="matrix(0.6613 0.7502 -0.7502 0.6613 962.1279 -731.487)" class="st2" width="19.6" height="1"/>
		</g>
		<g id="XMLID_120_">
			
				<rect id="XMLID_125_" x="1459.6" y="542.1" transform="matrix(0.6114 0.7914 -0.7914 0.6114 999.7628 -950.5709)" class="st2" width="16" height="1"/>
		</g>
		<g id="XMLID_77_">
			<path id="XMLID_134_" class="st2" d="M946.4,933l-32.9-57.5l63.4-36.2l32.9,57.5L946.4,933z M914.9,875.8l31.9,55.8l61.6-35.2
				l-31.9-55.8L914.9,875.8z"/>
		</g>
		<g id="XMLID_126_">
			<path id="XMLID_131_" class="st2" d="M941.6,975.2c-21.2,0-38.5-17.3-38.5-38.5s17.3-38.5,38.5-38.5s38.5,17.3,38.5,38.5
				S962.8,975.2,941.6,975.2z M941.6,899.2c-20.7,0-37.5,16.8-37.5,37.5s16.8,37.5,37.5,37.5s37.5-16.8,37.5-37.5
				S962.3,899.2,941.6,899.2z"/>
		</g>
		<g id="XMLID_130_">
			<path id="XMLID_137_" class="st2" d="M1090,885.6l-82.9-47.4l44-77L1090,885.6z M1008.4,837.8l79.9,45.6l-37.5-119.7
				L1008.4,837.8z"/>
		</g>
	</g>
</g>
</svg>
