<svg id="Layer_1" data-name="Layer 1" xmlns="http://www.w3.org/2000/svg" viewBox="0 0 505.69 302.4"><defs><style>.cls-1{fill:#252f3e;}.cls-2{fill:#f90;fill-rule:evenodd;}</style></defs><path class="cls-1" d="M142.51,109.83a50.75,50.75,0,0,0,1.85,15,89.73,89.73,0,0,0,5.38,12.11,7.36,7.36,0,0,1,1.18,3.87c0,1.68-1,3.37-3.2,5l-10.59,7.06a8.09,8.09,0,0,1-4.38,1.52,7.75,7.75,0,0,1-5-2.36,51.49,51.49,0,0,1-6.06-7.9c-1.68-2.86-3.36-6.06-5.21-9.93Q96.76,157.43,67,157.42c-14.13,0-25.39-4-33.64-12.11S20.91,126.48,20.91,113c0-14.29,5-25.9,15.3-34.64S60.1,65.26,77.42,65.26A133.38,133.38,0,0,1,95.25,66.6c6.22.84,12.61,2.19,19.34,3.7V58c0-12.78-2.69-21.69-7.91-26.91-5.38-5.21-14.46-7.73-27.41-7.73a76.62,76.62,0,0,0-18.16,2.18,135.5,135.5,0,0,0-18.17,5.72,48.37,48.37,0,0,1-5.89,2.19,10,10,0,0,1-2.69.5c-2.35,0-3.53-1.68-3.53-5.21V20.52c0-2.69.34-4.71,1.18-5.89a12.54,12.54,0,0,1,4.71-3.53A96.85,96.85,0,0,1,57.91,3.53,102.27,102.27,0,0,1,84.15.34c20,0,34.64,4.54,44.06,13.62,9.25,9.08,14,22.87,14,41.37v54.5ZM74.22,135.39a54.53,54.53,0,0,0,17.33-3,37.62,37.62,0,0,0,16-10.76,26.76,26.76,0,0,0,5.71-10.76,60.38,60.38,0,0,0,1.69-14.64V89.14a139.51,139.51,0,0,0-15.48-2.86,127.17,127.17,0,0,0-15.81-1c-11.27,0-19.51,2.19-25.06,6.73s-8.24,10.93-8.24,19.34c0,7.9,2,13.79,6.22,17.83C60.6,133.37,66.49,135.39,74.22,135.39Zm135.06,18.16c-3,0-5.05-.5-6.39-1.68-1.35-1-2.53-3.36-3.53-6.56l-39.53-130a29.49,29.49,0,0,1-1.51-6.73c0-2.69,1.34-4.21,4-4.21h16.49c3.19,0,5.38.51,6.56,1.68,1.34,1,2.35,3.37,3.36,6.56L217,124,243.25,12.61c.84-3.36,1.85-5.55,3.2-6.56a11.63,11.63,0,0,1,6.73-1.68h13.45c3.2,0,5.38.51,6.73,1.68,1.34,1,2.52,3.37,3.19,6.56L303.13,125.3,332.22,12.61c1-3.36,2.19-5.55,3.37-6.56,1.34-1,3.53-1.68,6.56-1.68h15.64c2.69,0,4.2,1.35,4.2,4.21a17.71,17.71,0,0,1-.33,2.69,24.35,24.35,0,0,1-1.18,4.2L320,145.48c-1,3.37-2.19,5.55-3.54,6.56a10.74,10.74,0,0,1-6.39,1.68H295.56c-3.2,0-5.38-.5-6.73-1.68s-2.52-3.36-3.19-6.73L259.57,36.83l-25.9,108.32c-.85,3.36-1.85,5.55-3.2,6.72s-3.7,1.68-6.73,1.68ZM425.4,158.1a111.18,111.18,0,0,1-25.9-3c-8.41-2-15-4.21-19.34-6.73-2.69-1.51-4.54-3.19-5.22-4.71a11.89,11.89,0,0,1-1-4.71v-8.58c0-3.53,1.35-5.21,3.87-5.21a9.45,9.45,0,0,1,3,.51c1,.33,2.52,1,4.2,1.68a91.32,91.32,0,0,0,18.5,5.88,100.73,100.73,0,0,0,20,2c10.59,0,18.84-1.85,24.55-5.55a18.11,18.11,0,0,0,8.75-16,16.38,16.38,0,0,0-4.54-11.77c-3-3.19-8.75-6-17-8.74l-24.39-7.57C398.66,81.74,389.57,76,384,68.45a40.06,40.06,0,0,1-8.4-24.39,37.37,37.37,0,0,1,4.54-18.66,43.15,43.15,0,0,1,12.11-13.8,53.48,53.48,0,0,1,17.49-8.74A73.2,73.2,0,0,1,431,0a85.22,85.22,0,0,1,11.27.67c3.87.51,7.4,1.18,10.93,1.85,3.36.84,6.56,1.68,9.59,2.69a36.79,36.79,0,0,1,7.06,3,14.6,14.6,0,0,1,5.05,4.21A9.1,9.1,0,0,1,476.36,18v7.9c0,3.53-1.35,5.38-3.87,5.38-1.34,0-3.53-.67-6.39-2a77,77,0,0,0-32.29-6.55c-9.59,0-17.16,1.51-22.37,4.7s-7.91,8.08-7.91,15a15.89,15.89,0,0,0,5.05,11.94c3.36,3.2,9.59,6.4,18.5,9.25L451,71.14C463.07,75,471.82,80.39,477,87.29a38,38,0,0,1,7.74,23.55,43.3,43.3,0,0,1-4.37,19.5,45.37,45.37,0,0,1-12.28,14.81,54.25,54.25,0,0,1-18.67,9.41A79.8,79.8,0,0,1,425.4,158.1Z"/><path class="cls-2" d="M457.19,239.83C401.85,280.7,321.46,302.4,252.33,302.4,155.46,302.4,68.17,266.58,2.24,207c-5.21-4.71-.5-11.1,5.72-7.4C79.27,241,167.23,266.07,258.22,266.07c61.39,0,128.83-12.78,190.89-39C458.36,222.85,466.27,233.11,457.19,239.83Z"/><path class="cls-2" d="M480.23,213.6c-7.07-9.08-46.76-4.38-64.75-2.19-5.39.67-6.23-4-1.35-7.57,31.62-22.2,83.59-15.81,89.64-8.41,6.06,7.57-1.68,59.54-31.28,84.43-4.54,3.87-8.91,1.85-6.89-3.19C472.32,260,487.29,222.51,480.23,213.6Z"/></svg>