<?xml version="1.0" encoding="utf-8"?>
<!-- Generator: Adobe Illustrator 26.3.1, SVG Export Plug-In . SVG Version: 6.00 Build 0)  -->
<svg version="1.1"
	 id="svg3476" xmlns:inkscape="http://www.inkscape.org/namespaces/inkscape" inkscape:version="0.91 r13725" xmlns:svg="http://www.w3.org/2000/svg" xmlns:sodipodi="http://sodipodi.sourceforge.net/DTD/sodipodi-0.dtd" xmlns:cc="http://creativecommons.org/ns#" xmlns:dc="http://purl.org/dc/elements/1.1/" xmlns:rdf="http://www.w3.org/1999/02/22-rdf-syntax-ns#"
	 xmlns="http://www.w3.org/2000/svg" xmlns:xlink="http://www.w3.org/1999/xlink" x="0px" y="0px" viewBox="0 0 290.2 409.6"
	 style="enable-background:new 0 0 290.2 409.6;" xml:space="preserve">
<style type="text/css">
	.st0{fill:#264DE4;}
	.st1{fill:#2965F1;}
	.st2{fill:#EBEBEB;}
	.st3{fill:#FFFFFF;}
</style>
<sodipodi:namedview  bordercolor="#666666" borderopacity="1.0" fit-margin-bottom="0" fit-margin-left="0" fit-margin-right="0" fit-margin-top="0" id="base" inkscape:current-layer="layer1" inkscape:cx="181.367" inkscape:cy="256" inkscape:document-units="px" inkscape:pageopacity="0.0" inkscape:pageshadow="2" inkscape:window-height="704" inkscape:window-maximized="1" inkscape:window-width="1366" inkscape:window-x="0" inkscape:window-y="27" inkscape:zoom="0.35" pagecolor="#ffffff" showgrid="false">
	</sodipodi:namedview>
<polygon id="polygon2989" class="st0" points="290.1,50 263.6,346.2 144.8,379.1 26.3,346.2 -0.1,50 "/>
<polygon id="polygon2991" class="st1" points="241,327.3 263.6,74.2 145,74.2 145,353.9 "/>
<polygon id="polygon2993" class="st2" points="60.4,184.1 63.7,220.4 145,220.4 145,184.1 "/>
<polygon id="polygon2995" class="st2" points="145,110.6 144.8,110.6 53.9,110.6 57.2,146.9 145,146.9 "/>
<polygon id="polygon2997" class="st2" points="145,316.2 145,278.4 144.8,278.5 104.3,267.6 101.8,238.6 82.1,238.6 65.3,238.6 
	70.4,295.6 144.8,316.3 "/>
<polygon id="polygon3005" class="st3" points="189.6,220.4 185.4,267.5 144.8,278.5 144.8,316.3 219.3,295.6 219.9,289.5 
	228.4,193.9 229.3,184.1 235.8,110.6 144.8,110.6 144.8,146.9 196,146.9 192.7,184.1 144.8,184.1 144.8,220.4 "/>
</svg>
