<svg id="Layer_1" data-name="Layer 1" xmlns="http://www.w3.org/2000/svg" viewBox="0 0 487.32 512"><defs><style>.cls-1{fill:#264de4;}.cls-2{fill:#2965f1;}.cls-3{fill:#ebebeb;}.cls-4{fill:#fff;}</style></defs><polygon id="polygon2989" class="cls-1" points="487.31 0 442.81 460.78 243.32 512 44.33 460.78 0 0 487.31 0"/><polygon id="polygon2991" class="cls-2" points="404.87 431.4 442.81 37.62 243.66 37.62 243.66 472.87 404.87 431.4"/><polygon id="polygon2993" class="cls-3" points="101.59 208.56 107.14 265.15 243.66 265.15 243.66 208.56 101.59 208.56"/><polygon id="polygon2995" class="cls-3" points="243.66 94.2 243.32 94.2 90.68 94.2 96.22 150.8 243.66 150.8 243.66 94.2"/><polygon id="polygon2997" class="cls-3" points="243.66 414.1 243.66 355.33 243.32 355.5 175.31 338.54 171.11 293.36 138.03 293.36 109.82 293.36 118.39 382.03 243.32 414.27 243.66 414.1"/><polygon id="polygon3005" class="cls-4" points="318.55 265.15 311.5 338.37 243.32 355.5 243.32 414.27 368.43 382.03 369.43 372.62 383.71 223.84 385.22 208.56 396.13 94.2 243.32 94.2 243.32 150.8 329.3 150.8 323.76 208.56 243.32 208.56 243.32 265.15 318.55 265.15"/></svg>