<svg id="Layer_1" data-name="Layer 1" xmlns="http://www.w3.org/2000/svg" viewBox="0 0 507.13 507.11"><defs><style>.cls-1{fill:#f05133;}</style></defs><path class="cls-1" d="M497.57,231,276.14,9.56a32.66,32.66,0,0,0-46.18,0l-46,46,58.32,58.32a38.78,38.78,0,0,1,49.12,49.44l56.21,56.21a38.81,38.81,0,1,1-23.28,21.91L271.93,189V327a38.77,38.77,0,1,1-32-1.13V186.6a38.33,38.33,0,0,1-12.72-8.48,38.84,38.84,0,0,1-8.37-42.48l-57.5-57.51L9.57,230a32.65,32.65,0,0,0,0,46.19L231,497.55a32.66,32.66,0,0,0,46.18,0l220.4-220.36a32.68,32.68,0,0,0,0-46.2"/></svg>